<svg id="a3053ccb-f6b6-4f01-ad1e-099958af1c18" data-name="Layer 1" xmlns="http://www.w3.org/2000/svg" width="100%" height="100%" viewBox="0 0 126.69 129.16"><defs><style>.b0f62d06-4dcb-4633-8c5b-2daad5d1bf17{fill:#e84336;}.be4544ad-699a-4c38-86ad-cb50e2660294{fill:#35a854;}.b693348a-4b1e-433f-8dfb-5f52b885af86{fill:#4385f3;}.b16a2e69-0e54-4d36-b090-6a011625ac6b{fill:#f8ba09;}</style></defs><path class="b0f62d06-4dcb-4633-8c5b-2daad5d1bf17" d="M9.27,36.87C29.84-4.38,83.63-8.89,110.2,18.69L94.1,34.33c-1.22,1.19-2,2-4.1.67C66.22,19.33,42.23,26.77,30.57,53.27Z" transform="translate(-2.22 -1.27)"/><path class="be4544ad-699a-4c38-86ad-cb50e2660294" d="M109.49,114.88c-22,21.05-61.95,20.68-85.56-.82-6.05-5.51-11.19-11.74-14.6-19.26L30.6,78.46c5.64,15.27,17.4,23.78,32.56,26.89,7.26,1.49,15-1.32,22-4.52,1.49-.68,3-1.41,4.44-2.12Z" transform="translate(-2.22 -1.27)"/><path class="b693348a-4b1e-433f-8dfb-5f52b885af86" d="M109.49,114.88,89.6,98.71c5.8-5.34,10.93-11.1,12.17-20-10,0-19.8-.2-29.56.1-4.06.12-5.61-.84-5.31-5.15.39-5.46.19-11,.06-16.47-.06-2.43.46-3.55,3.25-3.54,18.14.12,36.28.06,54.42.06,1.71,0,3.26-.07,3.54,2.38C130.82,78.53,126.67,98.77,109.49,114.88Z" transform="translate(-2.22 -1.27)"/><path class="b16a2e69-0e54-4d36-b090-6a011625ac6b" d="M30.6,78.46,9.33,94.8C-.16,75.5-.12,56.19,9.27,36.87l21.3,16.4A43.49,43.49,0,0,0,30.6,78.46Z" transform="translate(-2.22 -1.27)"/></svg>