<svg xmlns="http://www.w3.org/2000/svg" viewBox="0 0 2941 992"><defs><style>.bf340408-5571-4207-a34b-e9afa2ffff41{opacity:0.3;}</style></defs><g id="f809659f-5e86-4104-b512-82f8a01c6ab3" data-name="cut-top"><path d="M666.53,787.68c-52.37-.46-105.83-1.29-158.62-4.46A121.63,121.63,0,0,1,480,785.31q-7.92,0-15.65-.79a127.8,127.8,0,0,1-23.9,6c-24.35,3.64-46.81,7-70.94,7.38-5.55.08-11.09.34-16.62.72-17.59,3.45-35,7.79-52.68,10.8-34.11,5.8-68.77,10.35-103.4,11.71-17.08.67-34.18.62-51.28.95,13.73,23,30.61,43.43,51.17,59.82C225.11,888.67,241,909.1,258,927.25c80.56,28.37,185,49.93,278,53.34,34-14.75,82.84-5.68,110.07-8,29.5-22.69,60.14-44.25,86.24-70.35C741.42,843.28,692.63,824,666.53,787.68Z"/><path d="M1494.84,585.49a115.84,115.84,0,0,1-41.13,12.69c-9.39,4.05-18.83,8-28.4,11.58-19.64,7.35-41.49,8.56-61.94,10.71l41.3-5.55c-17.27,2.37-34.56,4.59-51.84,6.82a361.54,361.54,0,0,0-43.66,9.1,156.44,156.44,0,0,1-82.6,0l-.56-.24c-50.67,44-103,69.21-180.48,89l-18.16,4.54-4.54-2.27-6.81-17a161.26,161.26,0,0,1-6.43-21.37,116.47,116.47,0,0,1-13.82,5.47,116.91,116.91,0,0,1-59.85,13.38c-35,0-70.07-.83-105.07.44a125.2,125.2,0,0,1-18.85.7h-.41q.63,17.46,1.31,35.44L814,760.45c4.54,5.67,9.08,10.21,14.75,13.61l29.5,26.1L864,804.7,857.16,807l-22.7,6.81c11.35,17,19.3,35.18,27.24,52.2,14.75,32.91,28.37,61.27,52.2,76h4.54c9.07,0,20.42,4.53,26.09,18.15a438.91,438.91,0,0,0,63.55,4.54c19.29,1.14,39.72,1.14,69.22,5.68,149.79-62.42,229.22-96.46,296.17-214.47l7.94-13.62L1386,740l15.89,3.4c2.27-1.13,3.4-4.53,3.4-7.94V699.17l5.68,2.27,27.23,10.21c3.41-4.54,10.21-18.15,12.48-22.69,5.68-11.35,12.49-23.83,21.56-34.05,8.85-21.09,23-47.91,38.8-76A118,118,0,0,1,1494.84,585.49Z"/><path d="M1965.8,526q-93.63,12.78-187.35,22.88c-7.24,20.43-15.07,40.14-22.57,59.5-26.1,64.68-54.46,132.77-54.46,222.41v5.67c9.07,13.62,13.61,29.51,17,45.39,4.54,18.16,10.21,39.72,22.69,55.61a14.34,14.34,0,0,0,1.14,6.81l-2.27,9.07,12.48,6.81,17,6.81c3.4,2.27,7.94,3.41,11.35,5.67,6.81,10.22,15.88,13.62,23.83,14.76l4.54,2.27c1.13,2.27,3.4,4.54,3.4,5.67l5.67,5.67h15.89c29.51,0,53.33-9.07,67-25,12.48-15.89,15.89-36.31,11.35-62.41l-2.27-9.08-9.08-3.4c-5.67-2.27-10.21-5.68-15.89-9.08-3.4-2.27-7.94-4.54-11.34-6.81-2.27-9.08-9.08-14.75-11.35-17-3.4-10.22-1.13-19.29,1.14-28.37,1.13-9.08,3.4-18.16,3.4-27.24a27.11,27.11,0,0,0,6.81-12.48v-5.67c-1.14-4.54,2.27-12.48,5.67-20.43,3.41-9.07,6.81-18.15,7.94-28.37,6.81-6.8,8-13.61,9.08-17l6.81-5.67,2.27-6.81a76.15,76.15,0,0,0,3.4-9.08c5.68-21.56,15.89-56.73,30.64-69.22l4.54-4.54,1.14-5.67c5.67-30.64,19.29-53.33,32.9-74.89l2.27-4.54c2.51-8.91,5.15-17.34,7.91-25.44Q1977.15,524.44,1965.8,526Z"/><path d="M2793,630c-11.35-27.23-39.71-52.2-45.39-73.76-7.94-10.21-15.88,0-20.42-14.75,1.13-31.77-25-86.24-77.17-87.38-6.31-25.25-36.23-27.45-60.74-34.85-34.87-.06-69.72.81-104.55,3.46a198.81,198.81,0,0,1-86.69,15.7h-5.47c-48.28,10.32-96.22,22.28-144.19,34q-.59,2.66-1.19,5.5c7.94,15.89,20.42,28.37,30.63,42,14.76-2.27,18.16,6.81,21.57,14.75,52.19,22.7,107.8,29.5,167.94,32.91,26.1,5.67,40.85,14.75,59,4.54,28.36,15.88,78.29,27.23,112.34,46.52,0,0,4.53-1.13,13.61,3.41,0,10.21,13.62,9.07,10.22,20.42-6.81,31.78-39.72,39.72-49.93,70.36-84,39.71-173.62,108.93-295,95.32-42,22.69-6.81,74.89-21.56,102.12-3.4,9.08,19.29,10.22,6.81,17-2.27,3.41-3.4,5.68-3.4,10.22,6.8,1.13,2.27,13.61,10.21,14.75,5.67,15.89,15.89,27.23,27.23,38.58,37.45-5.67,84,12.48,108.94-12.48-3.41,10.21,7.94,5.67,13.62,6.81,129.36-39.72,276.87-111.21,329.07-242.84C2802.11,708.25,2795.3,674.21,2793,630Z"/><path d="M232.64,757.13c69-10.31,137.48-23.11,205.85-36.72-78.73-4.73-156-14.67-225.93-36.39-10.21-19.3-21.56-37.45-23.83-64.69,9.08-13.61,20.43-26.09,20.43-49.92C263.63,517.21,310.15,454.8,393,431c48.79-54.47,129.36-76,208.79-98.73,80.57-20.42,144.12-143,36.31-175.88,1.14-10.22,7.95-12.49,0-20.43-20.42-1.13-26.09-13.62-40.85-12.48,1.14-2.27,10.22-14.75,0-15.89-7.94,19.29-15.88-11.35-32.9-7.94-12.49,4.54-31.78,12.48-40.86,0C500.79,134.8,445.19,138.2,418,168.84c-73.76,17-106.66,73.76-180.42,89.64-19.29,28.37-56.74,36.32-69.22,70.36-3.41-2.27-6.81-4.54-12.48-4.54C105.9,381,51.43,433.24,24.19,512.67,21.5,596.09,35.13,697.23,82.43,769,132.63,767.21,182.71,763,232.64,757.13Z"/><path d="M743,660.29c66.19-11.73,132.57-22.41,199-32.89-16.25-60-11.73-166.65,20.62-228.21-1.14-28.37-14.75-63.54-28.37-95.32-6.81-15.88-13.62-31.77-18.16-46.52-26.1-10.21-37.44-31.77-45.39-47.66C860.5,190.4,856,181.32,832.13,181.32c-7.94,12.48-19.29,31.77-44.25,37.45-5.68,14.75-9.08,32.91-12.49,53.33-3.4,23.83-6.8,49.93-17,77.16,1.14,2.27,2.27,5.68,3.41,7.95l1.13,6.81-2.27,9.07C735.68,446.89,738.75,545.61,743,660.29Z"/><path d="M1422.77,550.81c15-28.62,33.8-61,51.63-91.48l1.14-11.34c6.8-43.12,11.34-79.44,26.09-124.82-3.4-32.91-12.48-55.61-21.56-79.44-11.34-26.1-22.69-53.33-23.83-91.91-19.29-20.43-42-43.12-69.22-61.28-17,9.08-31.77,22.7-37.44,38.58-2.27,5.68-4.54,13.62,0,19.29l2.27,5.68,1.13,9.08c-1.13,14.75-9.08,26.09-23.83,31.77-4.54,97.59-42,232.62-114.61,314.32-34.43,39.28-65.81,68.35-100.66,91Z"/><path d="M1497.1,290.26l1.13,12.48,11.35,3.4c4.54,1.14,7.94,5.68,12.48,13.62l4.54,6.81c19.29,11.35,34,12.48,46.53,12.48,4.54,0,9.07-1.13,13.61-1.13h13.62c6.81,0,12.48,0,19.29,1.13l4.54,1.14,5.67-2.27c5.68-2.27,12.49-3.41,21.56-3.41h12.49c4.53,1.14,9.07,1.14,13.61,1.14,9.08,0,20.43-1.14,31.78-6.81,4.53,1.13,9.07,1.13,13.61,1.13a185.4,185.4,0,0,0,26.1-2.27c11.35-2.27,19.29-3.4,28.37-3.4-1.13,9.08-6.81,21.56-12.48,34-9.08,18.16-18.16,37.45-18.16,55.61l-4.54,4.53c-2.27,2.27-4.54,3.41-5.67,3.41l-9.08,3.4-2.27,9.08c-6.45,25.1-14.72,48.84-23.37,71.79l206.76-33.08,6.7-1.07c9.4-30.1,20.43-55.13,32.32-81.89,12.49-28.37,26.1-57.88,36.32-93.05,28.36-4.54,62.41-9.08,97.58-13.62,48.8-6.81,103.27-13.62,147.52-13.62,10.21,0,20.43,0,29.5,1.14h4.54c9.08-2.27,17-5.68,22.7-8,9.08-4.54,17-6.81,27.23-6.81h13.62l5.67-10.21c0-1.13,3.41-3.4,5.68-4.54,4.54-2.27,7.94-4.54,11.34-9.08l4.54-3.4,1.14-6.81c5.67-52.2-21.56-74.89-44.26-93-10.21-7.94-20.42-17-26.1-27.23L2280.08,94,2271,92.81a413.13,413.13,0,0,0-68.09-5.67c-56.74,0-119.15,9.07-178.15,17-42,5.67-81.71,11.35-120.29,14.75-7.94-9.08-20.42-21.56-43.12-21.56-2.27,0-4.54,1.13-7.94,1.13l-6.81,1.14-5.67,5.67c-3.41,5.68-4.54,10.22-6.81,14.75-1.14,2.27-3.41,6.81-4.54,7.95-38.58,3.4-74.89,6.81-110.07,10.21-61.28,5.67-120.29,11.35-175.89,11.35h-37.44l-15.89-1.14-2.27,17c-6.81,7.95-12.48,13.62-14.75,26.1,0,29.51,7.94,48.8,14.75,67C1492.56,269.83,1496,280,1497.1,290.26Z"/><path d="M2177.93,415.08a101.42,101.42,0,0,0,7.47,12.44c119-20.32,237.69-41.81,356.12-65.44-18.2-4.85-37.88-8.23-48.13-20.76,3.41-10.21-4.53-9.08-3.4-18.15,29.5-2.27,56.74-5.68,74.89-20.43,40.86,6.81,98.73-39.72,132.77-5.67,46.47-4,105.85-12.21,163.9-3.77q26.88-6,53.77-12.07c8.36-5.43,16.46-11.12,24-17.07,6.81-31.78-5.67-47.66-23.83-63.55-2.27-31.77-39.71-60.14-51.06-95.32-194-57.87-351.77,42-512.91,72.63-2.27,7.94,6.81,5.67,6.81,11.34-62.41,18.16-148.65,44.26-175.89,120.29,2.27,23.83-2.27,32.91-7.94,56.74C2187,381,2182.47,393.52,2177.93,415.08Z"/></g></svg>