<svg xmlns="http://www.w3.org/2000/svg" xmlns:xlink="http://www.w3.org/1999/xlink" width="100%" height="100%" viewBox="0 0 4000 4000"><defs><style>.b7559080-439e-452a-a3e9-29736165c4e4{mask:url(#b05dffa3-0ede-4153-81b8-18c1ea796d69);filter:url(#b0316854-2f6c-4ce3-a892-22c02790ba23);}.ab140e8c-cbdd-45df-9475-c510e0ad4a7c,.ae82d3af-115f-4e15-b3c8-5b0eb03b8339,.b2256584-d8f3-4de2-a43f-483ad88a19e7,.b85e4a2e-a6c1-4c4a-ba2c-3cd76f70d59a{mix-blend-mode:multiply;}.ae82d3af-115f-4e15-b3c8-5b0eb03b8339{fill:url(#f16c520d-a451-4a10-ba64-5b626fa59e69);}.b53a2e58-6497-426f-b7a7-a08e423f2e33{mask:url(#a5fbfd4d-2a83-47ad-ba92-97e75fb54f11);filter:url(#f47acf7e-f71e-48f3-a394-5716ec99551e);}.b2256584-d8f3-4de2-a43f-483ad88a19e7{fill:url(#b94532c3-bf5e-4548-b314-30af5bf592c9);}.abfc6e8d-71e1-4369-8158-65e939e288c9{mask:url(#aca9c22e-8963-49ed-839c-32447839b9f8);filter:url(#b49dd5b1-a7af-43ee-8009-9063960e19df);}.b85e4a2e-a6c1-4c4a-ba2c-3cd76f70d59a{fill:url(#bec1cd92-d740-42d8-b54d-a4721701b325);}.eb69d6cc-3a38-416b-aa44-7c28df68b8a1{mask:url(#b2ac5792-7cee-460d-ba59-c43c28e4160e);filter:url(#a519de40-b852-439f-bafe-f270a09a5f3d);}.ab140e8c-cbdd-45df-9475-c510e0ad4a7c{fill:url(#bc163c2f-dbff-45ad-a607-3fa40224c362);}.aa589d48-9b3a-4570-ab9f-f4f3484eee60{fill:none;}.b2b48826-b7ae-4b6f-9124-abd64fe04c54{isolation:isolate;}.b23b7e1d-11f0-467a-9f0a-adbcf53654e6{fill:#ff2c5f;}.e8a8b3a6-69d0-4740-aa3e-665af2c1b757{fill:#fff;}.b142c551-0fdb-4c96-9150-d03dc5e74680{fill:#371a45;}.b00ea7b4-e707-4ee8-b061-4f3714a8a097{opacity:0.35;}.a2fee882-bf63-4d5a-b107-ad7179a8573e{fill:#d3d3d3;}.fcdb1ebd-c874-4826-accd-d47ce56dbecc{mask:url(#eb602a9d-9340-4ab8-b679-e34fead58420);}.a895737b-beef-4fed-893f-272472c26a78{fill:url(#b30c9c25-d6f5-45b0-bc30-39547d5ad813);}.e0fc38c5-31bc-4190-a5cb-6009fa67cc3e{mask:url(#ab4e4705-451e-4a56-b872-7d542ec44684);}.fbda23f3-5af1-4ff2-a40e-cb0fa6096b39{fill:url(#bc79a11c-1ecd-4867-bba9-fc4b87797d81);}.feb808b8-516e-4015-93cb-965256e271cc{fill:#f4f4f4;}.aca535b4-b39a-4c21-bab3-4c45a261fbce{fill:#ffa14d;}.be6bf4ee-3566-4879-9a24-364930f07ca4{mask:url(#b45e1649-2320-4e4d-9009-15fc2fe63f0b);}.e8f02488-0e4e-4c7e-b3f7-486872856f5c{fill:url(#e4f3497a-1cb1-473d-9221-1f927198b6e7);}.a4266fad-2abb-4c32-b5f0-2df40eb9d7bf{mask:url(#bb3daeb7-51ca-4101-9432-dc7bcc78657d);}.b860c315-f645-4161-a2ba-d3a227936cb0{fill:url(#af2ace33-3fec-4aa9-aff4-2aa8e8a98228);}.a4044ed4-7c56-42a6-9c0e-152f79a32c95{fill:#111a28;}.bf5e1bb0-ed55-4d80-9df3-419fd4bf4ff7{opacity:0.5;}.bead9780-c47c-4a86-8f80-5419d91cbc8a,.bf5e1bb0-ed55-4d80-9df3-419fd4bf4ff7,.f499b1fa-513d-4522-b5fb-f5250ad13895{mix-blend-mode:lighten;}.ad60a61a-c161-4cd2-a34e-337e827b6151{fill:#22a7f0;}.bd3ad710-418b-4202-9661-b713138996dd{fill:#f9b373;}.af7d5b37-23ee-42ad-9b13-194088f3973e{clip-path:url(#a90a6e29-5128-49b1-abb6-280ac5517f8a);}.beab4453-aa4a-49ab-98da-fee3d42d039a{fill:#d88556;}.b74eee70-8c69-49e9-afa0-c5e286646209{opacity:0.7;}.bea113d8-8629-49be-915b-3e2388e7d810{fill:#4f444d;}.ffd1a665-439b-4802-83e4-c060ab223a0a{fill:#493646;}.e3335b87-a9ab-40d2-ab16-3d9797b29528{fill:#ff2d60;}.ecdc58e3-b616-4e67-b3b4-5c0cc3e8b52e,.f499b1fa-513d-4522-b5fb-f5250ad13895{opacity:0.3;}.ab11f4d1-44d0-48df-b989-2405068487be{fill:#f7931e;}.bb587200-4df3-487a-9cf1-e5a8c369cbd3{filter:url(#bddd15e4-ebf4-4049-bd61-9a3ae0351887);}.a3d66492-4599-4de1-8a8c-3dcf620b4524{filter:url(#ec20f282-2acd-4240-8ebe-965f81d1fa28);}.ef0af3ca-cafd-458f-8e73-deae8a12deb7{filter:url(#a036c9af-c329-46d3-8f78-c2cbe110e6d0);}.bdc4a531-804a-4712-902e-51006ce3869c{filter:url(#b35963c7-e4fd-45f3-bbff-4a6a3d06b27c);}</style><filter id="b35963c7-e4fd-45f3-bbff-4a6a3d06b27c" x="728.34" y="-10192" width="141.7" height="32766" filterUnits="userSpaceOnUse" color-interpolation-filters="sRGB"><feFlood flood-color="#fff" result="bg"/><feBlend in="SourceGraphic" in2="bg"/></filter><mask id="b05dffa3-0ede-4153-81b8-18c1ea796d69" x="728.34" y="-10192" width="141.7" height="32766" maskUnits="userSpaceOnUse"><g class="bdc4a531-804a-4712-902e-51006ce3869c"/></mask><linearGradient id="f16c520d-a451-4a10-ba64-5b626fa59e69" x1="851.27" y1="1123.75" x2="732.74" y2="1259.2" gradientUnits="userSpaceOnUse"><stop offset="0" stop-color="#fff"/><stop offset="1" stop-color="#0b0b0b"/><stop offset="1"/></linearGradient><filter id="a036c9af-c329-46d3-8f78-c2cbe110e6d0" x="800.51" y="-10192" width="106.83" height="32766" filterUnits="userSpaceOnUse" color-interpolation-filters="sRGB"><feFlood flood-color="#fff" result="bg"/><feBlend in="SourceGraphic" in2="bg"/></filter><mask id="a5fbfd4d-2a83-47ad-ba92-97e75fb54f11" x="800.51" y="-10192" width="106.83" height="32766" maskUnits="userSpaceOnUse"><g class="ef0af3ca-cafd-458f-8e73-deae8a12deb7"/></mask><linearGradient id="b94532c3-bf5e-4548-b314-30af5bf592c9" x1="891.77" y1="1355.34" x2="812.39" y2="1446.07" xlink:href="#f16c520d-a451-4a10-ba64-5b626fa59e69"/><filter id="ec20f282-2acd-4240-8ebe-965f81d1fa28" x="3129.97" y="-10192" width="141.7" height="32766" filterUnits="userSpaceOnUse" color-interpolation-filters="sRGB"><feFlood flood-color="#fff" result="bg"/><feBlend in="SourceGraphic" in2="bg"/></filter><mask id="aca9c22e-8963-49ed-839c-32447839b9f8" x="3129.97" y="-10192" width="141.7" height="32766" maskUnits="userSpaceOnUse"><g class="a3d66492-4599-4de1-8a8c-3dcf620b4524"/></mask><linearGradient id="bec1cd92-d740-42d8-b54d-a4721701b325" x1="5867.78" y1="1123.75" x2="5749.26" y2="1259.2" gradientTransform="matrix(-1, 0, 0, 1, 9016.51, 0)" xlink:href="#f16c520d-a451-4a10-ba64-5b626fa59e69"/><filter id="bddd15e4-ebf4-4049-bd61-9a3ae0351887" x="3092.66" y="-10192" width="106.83" height="32766" filterUnits="userSpaceOnUse" color-interpolation-filters="sRGB"><feFlood flood-color="#fff" result="bg"/><feBlend in="SourceGraphic" in2="bg"/></filter><mask id="b2ac5792-7cee-460d-ba59-c43c28e4160e" x="3092.66" y="-10192" width="106.83" height="32766" maskUnits="userSpaceOnUse"><g class="bb587200-4df3-487a-9cf1-e5a8c369cbd3"/></mask><linearGradient id="bc163c2f-dbff-45ad-a607-3fa40224c362" x1="5908.29" y1="1355.34" x2="5828.9" y2="1446.07" gradientTransform="matrix(-1, 0, 0, 1, 9016.51, 0)" xlink:href="#f16c520d-a451-4a10-ba64-5b626fa59e69"/><filter id="b0316854-2f6c-4ce3-a892-22c02790ba23" x="728.34" y="976.1" width="141.7" height="352.84" filterUnits="userSpaceOnUse" color-interpolation-filters="sRGB"><feFlood flood-color="#fff" result="bg"/><feBlend in="SourceGraphic" in2="bg"/></filter><mask id="eb602a9d-9340-4ab8-b679-e34fead58420" x="728.34" y="976.1" width="141.7" height="352.84" maskUnits="userSpaceOnUse"><g class="b7559080-439e-452a-a3e9-29736165c4e4"><path class="ae82d3af-115f-4e15-b3c8-5b0eb03b8339" d="M870,1144.65l-70.22,184.28-71.47-27.26,124-325.57Q859.85,1060.6,870,1144.65Z"/></g></mask><linearGradient id="b30c9c25-d6f5-45b0-bc30-39547d5ad813" x1="851.27" y1="1123.75" x2="732.74" y2="1259.2" gradientUnits="userSpaceOnUse"><stop offset="0" stop-color="#fff"/><stop offset="1" stop-color="#fff"/><stop offset="1"/></linearGradient><filter id="f47acf7e-f71e-48f3-a394-5716ec99551e" x="800.51" y="1248.67" width="106.83" height="245.27" filterUnits="userSpaceOnUse" color-interpolation-filters="sRGB"><feFlood flood-color="#fff" result="bg"/><feBlend in="SourceGraphic" in2="bg"/></filter><mask id="ab4e4705-451e-4a56-b872-7d542ec44684" x="800.51" y="1248.67" width="106.83" height="245.27" maskUnits="userSpaceOnUse"><g class="b53a2e58-6497-426f-b7a7-a08e423f2e33"><path class="b2256584-d8f3-4de2-a43f-483ad88a19e7" d="M907.34,1401.15,872,1493.94l-71.48-27.22,83.12-218Q894.37,1325.08,907.34,1401.15Z"/></g></mask><linearGradient id="bc79a11c-1ecd-4867-bba9-fc4b87797d81" x1="891.77" y1="1355.34" x2="812.39" y2="1446.07" xlink:href="#b30c9c25-d6f5-45b0-bc30-39547d5ad813"/><filter id="b49dd5b1-a7af-43ee-8009-9063960e19df" x="3129.97" y="976.1" width="141.7" height="352.84" filterUnits="userSpaceOnUse" color-interpolation-filters="sRGB"><feFlood flood-color="#fff" result="bg"/><feBlend in="SourceGraphic" in2="bg"/></filter><mask id="b45e1649-2320-4e4d-9009-15fc2fe63f0b" x="3129.97" y="976.1" width="141.7" height="352.84" maskUnits="userSpaceOnUse"><g class="abfc6e8d-71e1-4369-8158-65e939e288c9"><path class="b85e4a2e-a6c1-4c4a-ba2c-3cd76f70d59a" d="M3130,1144.65l70.22,184.28,71.47-27.26-124-325.57Q3140.15,1060.6,3130,1144.65Z"/></g></mask><linearGradient id="e4f3497a-1cb1-473d-9221-1f927198b6e7" x1="5867.78" y1="1123.75" x2="5749.26" y2="1259.2" gradientTransform="matrix(-1, 0, 0, 1, 9016.51, 0)" xlink:href="#b30c9c25-d6f5-45b0-bc30-39547d5ad813"/><filter id="a519de40-b852-439f-bafe-f270a09a5f3d" x="3092.66" y="1248.67" width="106.83" height="245.27" filterUnits="userSpaceOnUse" color-interpolation-filters="sRGB"><feFlood flood-color="#fff" result="bg"/><feBlend in="SourceGraphic" in2="bg"/></filter><mask id="bb3daeb7-51ca-4101-9432-dc7bcc78657d" x="3092.66" y="1248.67" width="106.83" height="245.27" maskUnits="userSpaceOnUse"><g class="eb69d6cc-3a38-416b-aa44-7c28df68b8a1"><path class="ab140e8c-cbdd-45df-9475-c510e0ad4a7c" d="M3092.66,1401.15l35.35,92.79,71.48-27.22-83.12-218Q3105.63,1325.08,3092.66,1401.15Z"/></g></mask><linearGradient id="af2ace33-3fec-4aa9-aff4-2aa8e8a98228" x1="5908.29" y1="1355.34" x2="5828.9" y2="1446.07" gradientTransform="matrix(-1, 0, 0, 1, 9016.51, 0)" xlink:href="#b30c9c25-d6f5-45b0-bc30-39547d5ad813"/><clipPath id="a90a6e29-5128-49b1-abb6-280ac5517f8a"><polygon class="aa589d48-9b3a-4570-ab9f-f4f3484eee60" points="2919.97 3239.76 2919.97 3319.69 1065.14 3319.69 1065.14 3239.76 1249.83 2865.79 2735.28 2865.79 2919.97 3239.76"/></clipPath></defs><g class="b2b48826-b7ae-4b6f-9124-abd64fe04c54"><g id="febb747c-68f3-4d1d-aeef-8cf828656d76" data-name="Layer 1"><circle class="b23b7e1d-11f0-467a-9f0a-adbcf53654e6" cx="2000" cy="1949.67" r="1362.5"/><path class="e8a8b3a6-69d0-4740-aa3e-665af2c1b757" d="M2645.86,3444.21a29.77,29.77,0,0,1-29.57-26.3l-8-68.43H1375.9l-8,68.42a29.78,29.78,0,0,1-29.58,26.31h-83.65a29.77,29.77,0,0,1-29.57-26.3l-8-68.43H1065.15a29.81,29.81,0,0,1-29.77-29.78v-80a26.26,26.26,0,0,1,.38-4.2c.07-.58.17-1.28.27-1.73a30,30,0,0,1,1.84-5.89c.15-.41.32-.81.49-1.17l184.79-374.14a29.58,29.58,0,0,1,26.7-16.59h152.48c0-.35.21-3.21.21-3.21a105,105,0,0,1,48.5-82.12c1.26-.81,2.56-1.61,3.89-2.38V2567c-371.71-64.15-542-310-572.64-359.16a959.6,959.6,0,0,1-47.45-84.46c-.21-.31-.4-.63-.59-1-3.26-5.64-80.4-140.92-61.51-255.22,7.11-43,28.76-85.85,60.59-121-32.18,8.12-63.76,16.18-94.22,24.07a29.73,29.73,0,0,1-35.1-17.74c-76.81-191.66-159.27-439-114.89-652.1,27.12-130.3,127.78-231.81,250.46-252.61a29.76,29.76,0,0,1,34.68,27.26,5295.06,5295.06,0,0,0,118.21,801.54l.65,2.66a90.6,90.6,0,0,1,13.55,4.7,76.91,76.91,0,0,1,14.66,8.61,82.1,82.1,0,0,1,37.52-12.74c2.94-.27,5.91-.4,8.84-.4,36.9,0,72.15,20.88,92,54.51,13.7,23.2,20.65,67,17.39,108.22,52.62,75.9,111.25,154.33,194.71,212.19l.11.07c38.31,26.54,75.65,50,111.64,70.19a645.92,645.92,0,0,1-93.33-168.84c-85.23-5-152.91-75.56-153.18-161.63l-.37-124.17c-.23-77.14,55.46-144.1,129.62-159.52a55.14,55.14,0,0,1,2.5-21.9A658.44,658.44,0,0,1,1487.35,1272a207.05,207.05,0,0,1,96.06-65.21c16.83-5.49,34.6-10.86,52.87-16a644.27,644.27,0,0,1,363.13-111.38c14.93,0,30.09.51,45.06,1.53a649.35,649.35,0,0,1,314.08,106.23c19.24,5.16,37.87,10.58,55.4,16.12a207.16,207.16,0,0,1,96.87,64.68,662.16,662.16,0,0,1,121.35,218.51,55.36,55.36,0,0,1,2.68,20.49,162.5,162.5,0,0,1,128.57,158.4l.37,124.17a162.37,162.37,0,0,1-150,162.4,592,592,0,0,1-94.58,171.1c35.11-19.81,71.47-42.73,108.74-68.54l.2-.14c83.49-57.87,142.12-136.3,194.74-212.21-3.25-41.19,3.7-85,17.39-108.22,19.85-33.63,55.1-54.52,92-54.52,2.94,0,5.91.14,8.83.41a82.17,82.17,0,0,1,37.53,12.74,76.67,76.67,0,0,1,14.67-8.61,90.09,90.09,0,0,1,13.54-4.7l.68-2.8a5294.44,5294.44,0,0,0,118.18-801.39,29.76,29.76,0,0,1,29.7-27.69,29.28,29.28,0,0,1,5,.43c122.64,20.79,223.29,122.3,250.42,252.6,44.38,213.11-38.09,460.44-114.89,652.1a29.63,29.63,0,0,1-27.63,18.7,30,30,0,0,1-7.49-1c-30.37-7.87-61.94-15.93-94.21-24.07,31.84,35.13,53.49,78,60.6,121,18.89,114.3-58.26,249.58-61.55,255.28-.14.24-.32.52-.51.81a961.48,961.48,0,0,1-47.5,84.54c-30.64,49.11-201,295-572.58,359.15v180.81c1.66.94,3.29,1.92,4.86,2.93a105,105,0,0,1,48.5,82.15s.19,2.81.21,3.18h136.6A29.58,29.58,0,0,1,2762,2852.6l184.69,374a13.92,13.92,0,0,1,.69,1.61,29.89,29.89,0,0,1,1.75,5.71c.1.45.2,1.17.26,1.74a23.85,23.85,0,0,1,.38,4.12v80a29.81,29.81,0,0,1-29.77,29.78H2767.1l-8,68.42a29.78,29.78,0,0,1-29.58,26.31Z"/><path class="e8a8b3a6-69d0-4740-aa3e-665af2c1b757" d="M3155.44,862.4a14.92,14.92,0,0,1,2.48.21c116.64,19.77,212.4,116.58,238.28,240.88,43.56,209.19-38.11,453.76-114.12,643.46a14.74,14.74,0,0,1-17.42,8.8c-41.62-10.77-83.57-21.44-125.53-31.94-1.05,4.37-2.12,8.74-3.18,13.1,35.6,31.46,67.5,78.17,76.52,132.7,18,109.14-56.56,239.83-59.74,245.34-.14.24-.33.43-.48.66a945.56,945.56,0,0,1-47.27,84.25c-32,51.35-202.11,294.89-574.85,354.37v202.71a93.81,93.81,0,0,1,11.76,6.37,90.21,90.21,0,0,1,41.64,70.52l.14,2.12a92.27,92.27,0,0,1-.28,15.07H2735.3a14.77,14.77,0,0,1,13.24,8.23l184.69,373.95c.05.1.06.21.11.31a14.76,14.76,0,0,1,1.09,3.37c0,.23,0,.47.08.71a13.87,13.87,0,0,1,.25,2.15v80a14.78,14.78,0,0,1-14.77,14.78H2753.75l-9.56,81.68a14.77,14.77,0,0,1-14.68,13.05h-83.65a14.79,14.79,0,0,1-14.68-13.05l-9.55-81.68H1362.55l-9.56,81.68a14.77,14.77,0,0,1-14.68,13.05h-83.65a14.79,14.79,0,0,1-14.68-13.05l-9.55-81.68H1065.15a14.78,14.78,0,0,1-14.77-14.78v-80a12.75,12.75,0,0,1,.25-2.15c0-.24,0-.48.08-.71a14.76,14.76,0,0,1,1.09-3.37c0-.1.06-.21.11-.31l184.69-373.95a14.78,14.78,0,0,1,13.25-8.23h167.79a90.82,90.82,0,0,1-.28-15l.14-2.16a90.21,90.21,0,0,1,41.64-70.51,93.26,93.26,0,0,1,10.79-5.93V2554.24c-372.78-59.46-542.88-303-574.91-354.38a945.56,945.56,0,0,1-47.27-84.25c-.15-.23-.34-.42-.47-.66-3.19-5.51-77.78-136.2-59.74-245.34,9-54.53,40.9-101.24,76.51-132.7q-1.59-6.54-3.17-13.1c-42,10.5-83.92,21.17-125.53,31.94a14.74,14.74,0,0,1-17.42-8.8c-76-189.7-157.69-434.27-114.12-643.46,25.87-124.3,121.63-221.11,238.28-240.88a14.78,14.78,0,0,1,17.21,13.53A5309.13,5309.13,0,0,0,977.85,1680c1,4,2,8,2.93,12.08a78.74,78.74,0,0,1,19.84,5.68,70.61,70.61,0,0,1,20.31,14.2c10.23-9.61,23.78-15.69,39.3-17.12q3.74-.35,7.46-.34c31.42,0,61.82,17.89,79.08,47.13,12.21,20.67,19,64.25,14.88,104.67,49.58,71.72,111.23,157.82,201.63,220.46l.08.06c69.71,48.3,130.26,82.46,182.08,106.52q-12.21-12.55-23.85-25.83A634.84,634.84,0,0,1,1400.81,1941c-.31,0-.62.09-.93.09h-.48c-81.05,0-147.12-65.83-147.37-147l-.37-124.17c-.23-76.67,58.42-140,133.28-147.15a39.89,39.89,0,0,1-1.89-29.62,643.74,643.74,0,0,1,115.89-211.66,192.06,192.06,0,0,1,89.11-60.47q27.1-8.83,54.63-16.44a629.46,629.46,0,0,1,356.73-110.17q21.93,0,44,1.5a631.5,631.5,0,0,1,308.84,105.11q28.78,7.67,57.14,16.57a192.16,192.16,0,0,1,89.87,60,647.21,647.21,0,0,1,118.62,213.57h0a40,40,0,0,1-1.1,28.14,147.39,147.39,0,0,1,131.6,146.1l.37,124.17a147.37,147.37,0,0,1-145.85,147.82,578,578,0,0,1-99.09,180.88c-2,2.48-4.31,5.06-6.76,7.68q-19.44,24.27-41.39,46.77c51.57-24,111.74-58,181-106l.07-.06c90.41-62.64,152.06-148.74,201.63-220.46-4.14-40.42,2.68-84,14.88-104.67,17.26-29.24,47.68-47.14,79.08-47.13q3.72,0,7.46.34c15.52,1.43,29.08,7.51,39.3,17.12a70.61,70.61,0,0,1,20.31-14.2,78.82,78.82,0,0,1,19.85-5.68c1-4,2-8,2.93-12.08a5311.65,5311.65,0,0,0,118.55-803.81,14.76,14.76,0,0,1,14.73-13.74m0-30A44.77,44.77,0,0,0,3110.78,874a5281.35,5281.35,0,0,1-116.56,793.47c-2.36.84-4.67,1.75-6.92,2.75a87,87,0,0,0-9.19,4.73,98.54,98.54,0,0,0-35.58-10.07c-3.4-.31-6.83-.46-10.22-.46-42.18,0-82.38,23.71-104.92,61.88-14.74,25-22.34,68.72-19.8,111.63-51.06,73.42-108.08,148.74-188,204.1-.11.06-.2.14-.31.21q-23.86,16.53-47.19,31.43a602.24,602.24,0,0,0,52.59-107.78,177.43,177.43,0,0,0,154.06-176.4l-.37-124.17a177.65,177.65,0,0,0-129-170.23,70.54,70.54,0,0,0-3-13.28,677.21,677.21,0,0,0-124.08-223.45A222.08,222.08,0,0,0,2418.46,1189c-17-5.38-35-10.65-53.67-15.68A664.37,664.37,0,0,0,2045.49,1066c-15.3-1-30.81-1.57-46.08-1.57A659.22,659.22,0,0,0,1629.89,1177c-17.6,5-34.79,10.17-51.14,15.5a222.09,222.09,0,0,0-103,69.94A673.76,673.76,0,0,0,1354.5,1484a71.24,71.24,0,0,0-3.08,14.67A177.67,177.67,0,0,0,1221.66,1670l.37,124.17c.28,90.81,69.29,165.86,157.51,175.76a659.09,659.09,0,0,0,52.76,106.55q-25.58-16.21-51.86-34.41l-.12-.08c-79.84-55.34-136.85-130.66-187.91-204.07,2.55-42.9-5.06-86.66-19.8-111.63-22.53-38.17-62.74-61.88-104.92-61.88-3.39,0-6.81.15-10.18.46a98.69,98.69,0,0,0-35.62,10.07,89,89,0,0,0-9.19-4.74c-2.25-1-4.56-1.9-6.91-2.74A5278.84,5278.84,0,0,1,889.23,874a44.78,44.78,0,0,0-44.66-41.64A44.25,44.25,0,0,0,837,833c-128.69,21.81-234.24,128-262.6,264.33-45.2,217,38.06,467.12,115.64,660.74a44.75,44.75,0,0,0,52.81,26.68q25.62-6.63,52.19-13.41c-18.91,29.13-31.83,61.17-37.14,93.34-19.43,117.52,54.83,250.46,63.36,265.24l.45.76a971.06,971.06,0,0,0,47.82,85c18.08,29,70.48,104.73,166.35,181.67,115.41,92.63,251.22,153.84,404,182.12v160.53a119.67,119.67,0,0,0-51.17,81H1249.85A44.51,44.51,0,0,0,1209.7,2846L1025,3219.91c-.07.14-.13.27-.2.4-.29.63-.57,1.29-.84,2a45.82,45.82,0,0,0-2.63,8.49c-.23,1.1-.37,2.07-.46,2.87a38.36,38.36,0,0,0-.5,6.11v80a44.83,44.83,0,0,0,44.77,44.78h138.58l6.46,55.16a44.78,44.78,0,0,0,44.47,39.57h83.65a44.79,44.79,0,0,0,44.48-39.55l6.45-55.18H2594.93l6.46,55.16a44.78,44.78,0,0,0,44.47,39.57h83.65a44.79,44.79,0,0,0,44.48-39.55l6.45-55.18H2920a44.83,44.83,0,0,0,44.77-44.78v-80a38.55,38.55,0,0,0-.5-6.13c-.1-.8-.24-1.77-.47-2.88a44.87,44.87,0,0,0-2.54-8.27c-.3-.76-.61-1.51-1-2.24l-.15-.31L2775.44,2846A44.51,44.51,0,0,0,2735.3,2821h-123a119.68,119.68,0,0,0-52.14-81.62V2579.5c152.78-28.28,288.57-89.48,404-182.11,95.85-76.93,148.26-152.66,166.34-181.66,19-30.4,34.62-58.24,47.84-85.06l.27-.45a2.26,2.26,0,0,1,.16-.26c8.53-14.78,82.78-147.72,63.36-265.24-5.32-32.16-18.23-64.21-37.15-93.34q26.58,6.78,52.22,13.42a45,45,0,0,0,11.23,1.43,44.56,44.56,0,0,0,41.55-28.12c77.59-193.62,160.85-443.7,115.65-660.74C3397.2,961.08,3291.65,854.85,3162.93,833a44,44,0,0,0-7.49-.63Z"/><rect class="e8a8b3a6-69d0-4740-aa3e-665af2c1b757" x="1484.71" y="2178.67" width="1030.64" height="849.31" rx="263.56"/><path class="b142c551-0fdb-4c96-9150-d03dc5e74680" d="M2251.79,3042.75H1748.26c-153.47,0-278.33-124.85-278.33-278.33V2442.23c0-153.47,124.86-278.33,278.33-278.33h503.53c153.48,0,278.33,124.86,278.33,278.33v322.19C2530.12,2917.9,2405.27,3042.75,2251.79,3042.75Zm-503.53-849.3c-137.17,0-248.78,111.6-248.78,248.78v322.19c0,137.18,111.61,248.78,248.78,248.78h503.53c137.18,0,248.78-111.6,248.78-248.78V2442.23c0-137.18-111.6-248.78-248.78-248.78Z"/><g class="b00ea7b4-e707-4ee8-b061-4f3714a8a097"><path class="b142c551-0fdb-4c96-9150-d03dc5e74680" d="M1712.23,2343.6l-2.69,6.76a241,241,0,0,1-19.84,23Z"/></g><path class="e8a8b3a6-69d0-4740-aa3e-665af2c1b757" d="M1792.5,2237.51,1759,2281.73l-71.73,94.82-130.91,173q-10-.77-19.76-1.7C1186,2514.55,982.33,2311.94,907.56,2192c-92.27-147.94-103.76-230.31-82.85-330.45,24.34-116.47,156.73-142.1,211.21-131.06,72.15,14.59,142.11,225.81,319,348.33,37.53,26,72.47,48,104.9,66.6C1686.89,2275.71,1790.1,2238.4,1792.5,2237.51Z"/><g class="b00ea7b4-e707-4ee8-b061-4f3714a8a097"><path class="b142c551-0fdb-4c96-9150-d03dc5e74680" d="M1689.7,2373.37l-133.31,176.16c-290.23-21.94-482.6-159.42-587-276.08C1164.14,2403,1523.14,2544.55,1689.7,2373.37Z"/></g><path class="b142c551-0fdb-4c96-9150-d03dc5e74680" d="M1556.39,2564.29c-.37,0-.74,0-1.12,0C1122.81,2531.61,929.4,2255,895,2199.86c-97.78-156.78-105.13-243.86-84.77-341.29,27-129,172.42-153.9,228.6-142.53,38.33,7.76,70.65,54.61,115.37,119.45,50.84,73.7,114.11,165.44,209.08,231.24,291.11,201.7,422.74,157.39,424.05,156.93a14.77,14.77,0,0,1,10.5,27.61c-5.76,2.23-144.84,52.15-451.38-160.25-99.41-68.88-164.38-163.07-216.58-238.75-37.7-54.66-70.26-101.87-96.91-107.26-46.09-9.34-171.43,12.53-193.81,119.6-19.27,92.24-12.08,170.49,80.93,319.61,33.06,53,219.15,319,637.39,350.57a14.77,14.77,0,0,1-1.1,29.5Z"/><path class="a2fee882-bf63-4d5a-b107-ad7179a8573e" d="M963.45,1683.29q-116.13,28.2-231.83,58.17c-23-57.44-46.43-119.75-66.71-184.43-46.39-148-76.24-308.47-46.65-450.54,23.49-112.77,110.26-209.63,226.29-229.31q3.48,49.53,7.83,98.92,7.47,84.5,17.65,168.55,6.27,52.08,13.6,104,10.74,76.41,23.71,152.48,23,134.7,53,268.43C961.38,1674.16,962.42,1678.71,963.45,1683.29Z"/><g class="fcdb1ebd-c874-4826-accd-d47ce56dbecc"><path class="a895737b-beef-4fed-893f-272472c26a78" d="M870,1144.65l-70.22,184.28-71.47-27.26,124-325.57Q859.85,1060.6,870,1144.65Z"/></g><g class="e0fc38c5-31bc-4190-a5cb-6009fa67cc3e"><path class="fbda23f3-5af1-4ff2-a40e-cb0fa6096b39" d="M907.34,1401.15,872,1493.94l-71.48-27.22,83.12-218Q894.37,1325.08,907.34,1401.15Z"/></g><path class="feb808b8-516e-4015-93cb-965256e271cc" d="M844.57,877.18c.42,6.48.64,9.72,1.08,16.2-86.23,40.4-135.91,116.73-157.41,203.4-47.89,193.1,36.85,440.87,111.75,627-27.35,7-41,10.5-68.34,17.62-75.67-188.81-155.9-430.82-113.39-634.95C641.74,993.73,728.53,896.86,844.57,877.18Z"/><g class="b00ea7b4-e707-4ee8-b061-4f3714a8a097"><path class="b142c551-0fdb-4c96-9150-d03dc5e74680" d="M963.45,1683.29q-116.13,28.2-231.83,58.17c-23-57.44-46.43-119.75-66.71-184.43,49.76,78.42,131,140,295.47,112.55C961.38,1674.16,962.42,1678.71,963.45,1683.29Z"/></g><path class="b142c551-0fdb-4c96-9150-d03dc5e74680" d="M731.64,1756.23a14.78,14.78,0,0,1-13.71-9.28c-76-189.69-157.69-434.25-114.13-643.47,25.88-124.29,121.64-221.09,238.29-240.87a14.78,14.78,0,0,1,17.21,13.53A5310.47,5310.47,0,0,0,977.86,1680a14.78,14.78,0,0,1-10.92,17.63c-77.18,18.74-155.1,38.29-231.59,58.1A14.88,14.88,0,0,1,731.64,1756.23ZM831,895C733.58,918.57,655,1002.8,632.73,1109.51c-41.05,197.14,34.76,430.33,107.81,614.38,67.91-17.53,136.84-34.83,205.29-51.52A5343,5343,0,0,1,831,895Z"/><path class="aca535b4-b39a-4c21-bab3-4c45a261fbce" d="M1035,2114h0a47.91,47.91,0,0,0,30.21-60q-57.29-183.7-101.73-370.68c-36.72,8.85-55.07,13.34-91.75,22.47Q917,1896.34,975.37,2083.08C983.46,2108.53,1010.24,2122.27,1035,2114Z"/><path class="b142c551-0fdb-4c96-9150-d03dc5e74680" d="M1020.22,2131.2a61,61,0,0,1-27.7-6.7,62.2,62.2,0,0,1-31.23-36.94c-38.77-124-73.74-251.31-104-378.38a14.77,14.77,0,0,1,10.8-17.76c36.64-9.11,54.67-13.53,91.86-22.5a14.78,14.78,0,0,1,17.83,10.94c29.55,124.16,63.69,248.55,101.46,369.71,10.31,32.46-7.46,67.69-39.63,78.44h0A61.18,61.18,0,0,1,1020.22,2131.2ZM889.48,1716.56c29.27,121.68,62.9,243.44,100,362.12a32.8,32.8,0,0,0,16.44,19.48,31.38,31.38,0,0,0,24.37,1.83h0c17-5.67,26.29-24.31,20.82-41.55-36.54-117.18-69.67-237.3-98.57-357.32C929,1706.81,912.73,1710.8,889.48,1716.56Z"/><path class="e8a8b3a6-69d0-4740-aa3e-665af2c1b757" d="M1019.16,1740.8c-17.94,49.23,20.07,171.75,72.06,178.38,65.64,8.38,66.3-130.34,42.83-170.09C1104.72,1699.42,1035.62,1695.62,1019.16,1740.8Z"/><path class="e8a8b3a6-69d0-4740-aa3e-665af2c1b757" d="M1091.22,1919.18a35.19,35.19,0,0,1-6.09-1.33c-48.84-14.85-83.23-129.77-66-177a18,18,0,0,1,.89-2.11c17.77-42.92,85.18-38.49,114,10.38C1157.53,1788.86,1156.86,1927.56,1091.22,1919.18Z"/><g class="b00ea7b4-e707-4ee8-b061-4f3714a8a097"><path class="b142c551-0fdb-4c96-9150-d03dc5e74680" d="M1085.13,1917.85c-48.84-14.85-83.23-129.77-66-177a18,18,0,0,1,.89-2.11c24.37-20.41,52.14.9,61.35,28.48C1091.43,1797.27,1110.9,1911.07,1085.13,1917.85Z"/></g><path class="b142c551-0fdb-4c96-9150-d03dc5e74680" d="M1096.69,1934.31a57.32,57.32,0,0,1-7.34-.47c-20.55-2.62-40-18.1-56.24-44.75-25.3-41.52-42.52-113-27.83-153.35,8.47-23.25,29-38.56,55-41,33.91-3.11,67.91,15.23,86.54,46.79,19.21,32.53,25.12,121.81-4.13,166.23C1131.28,1925.08,1115.15,1934.31,1096.69,1934.31ZM1067.28,1724c-1.48,0-2.93.06-4.34.19-8.51.79-23.7,4.64-29.9,21.65h0c-10.3,28.27,1.76,89.21,25.31,127.85,11.24,18.45,23.57,29.39,34.74,30.81,7,.91,16.19.24,24.87-13,21.72-33,17.85-110.42,3.37-135C1107.83,1733.74,1085.26,1724,1067.28,1724Zm-48.12,16.78h0Z"/><g class="b00ea7b4-e707-4ee8-b061-4f3714a8a097"><path class="b142c551-0fdb-4c96-9150-d03dc5e74680" d="M816.89,1920c17.38-105.16,128.81-188.83,192.56-160.79s107.29,241.62,103.82,293.77-63.54,56.38-117.43,56.38c-21.51,0-46.35-32.17-80.28-55C864.48,2020.09,806.44,1983.23,816.89,1920Z"/></g><path class="e8a8b3a6-69d0-4740-aa3e-665af2c1b757" d="M860.07,2107.56s-75.34-130.37-58-235.54,128.82-188.83,192.56-160.79S1102,1952.85,1098.49,2005s-140.8,102.56-140.8,102.56-20.51-21.43-56.47-28.68C878.21,2074.24,860.07,2107.56,860.07,2107.56Z"/><g class="b00ea7b4-e707-4ee8-b061-4f3714a8a097"><path class="b142c551-0fdb-4c96-9150-d03dc5e74680" d="M1098.5,2005c-3.47,52.16-140.81,102.58-140.81,102.58s-30-14.46-24.75-51.62,109.51,5.22,119.9-114.82c3.14-36.26-17.91-150.82-52-226.55C1061.23,1753.06,1101.86,1954.56,1098.5,2005Z"/></g><path class="b142c551-0fdb-4c96-9150-d03dc5e74680" d="M957.69,2122.34a14.78,14.78,0,0,1-5.09-28.65c53.28-19.59,129.19-60.35,131.15-89.67,3.74-56.17-43.3-256.51-95-279.26-18.39-8.08-44.41-4.32-71.44,10.32-42.4,23-90,75-100.6,139.35-16.3,98.62,55.45,224.48,56.18,225.74A14.78,14.78,0,0,1,847.28,2115c-3.19-5.51-77.79-136.2-59.75-245.34,12.28-74.26,67-134.13,115.69-160.52,35.63-19.3,70.23-23.34,97.4-11.38,74.33,32.7,116.12,255.73,112.61,308.27-3.92,58.76-126,106.48-150.45,115.45A14.67,14.67,0,0,1,957.69,2122.34Z"/><path class="b142c551-0fdb-4c96-9150-d03dc5e74680" d="M1170.25,2449.13a14.78,14.78,0,0,1-7.74-27.37c172.33-105.78,177.57-340.72,177.6-343.09a14.78,14.78,0,0,1,14.77-14.57h.21a14.78,14.78,0,0,1,14.57,15c-.15,10.31-5.64,253.66-191.69,367.86A14.74,14.74,0,0,1,1170.25,2449.13Z"/><path class="e8a8b3a6-69d0-4740-aa3e-665af2c1b757" d="M3092.44,2192c-74.72,119.87-278.26,322.29-628.55,355.76-6.72.62-13.48,1.22-20.27,1.73l-130.77-172.8-71.88-95-33.47-44.22c2.41.89,105.91,38.31,333.78-92.68,32.1-18.43,66.71-40.22,103.84-66,176.86-122.52,246.82-333.74,319-348.33,54.48-11,186.87,14.59,211.21,131.06C3196.2,1961.73,3184.71,2044.1,3092.44,2192Z"/><g class="b00ea7b4-e707-4ee8-b061-4f3714a8a097"><path class="b142c551-0fdb-4c96-9150-d03dc5e74680" d="M2310.3,2373.37l133.31,176.16c290.23-21.94,482.6-159.42,587-276.08C2835.86,2403,2476.86,2544.55,2310.3,2373.37Z"/></g><path class="b142c551-0fdb-4c96-9150-d03dc5e74680" d="M2443.61,2564.29a14.77,14.77,0,0,1-1.1-29.5c418.24-31.58,604.33-297.57,637.39-350.57,93-149.12,100.2-227.37,80.93-319.61-22.38-107.06-147.7-128.94-193.81-119.6-26.65,5.39-59.21,52.6-96.91,107.26-52.2,75.68-117.17,169.87-216.58,238.75-306.54,212.39-445.62,162.48-451.38,160.25a14.77,14.77,0,0,1,10.52-27.61c2.06.72,133.77,44.19,424-156.93,95-65.8,158.24-157.54,209.08-231.24,44.73-64.84,77-111.69,115.38-119.45,56.09-11.36,201.63,13.5,228.59,142.53,20.36,97.43,13,184.51-84.77,341.29-34.38,55.12-227.79,331.75-660.25,364.39C2444.35,2564.28,2444,2564.29,2443.61,2564.29Z"/><path class="a2fee882-bf63-4d5a-b107-ad7179a8573e" d="M3036.55,1683.29q116.13,28.2,231.83,58.17c23-57.44,46.43-119.75,66.71-184.43,46.39-148,76.24-308.47,46.65-450.54-23.49-112.77-110.26-209.63-226.29-229.31q-3.48,49.53-7.83,98.92-7.47,84.5-17.65,168.55-6.27,52.08-13.6,104-10.74,76.41-23.71,152.48-23,134.7-53,268.43C3038.62,1674.16,3037.58,1678.71,3036.55,1683.29Z"/><g class="be6bf4ee-3566-4879-9a24-364930f07ca4"><path class="e8f02488-0e4e-4c7e-b3f7-486872856f5c" d="M3130,1144.65l70.22,184.28,71.47-27.26-124-325.57Q3140.15,1060.6,3130,1144.65Z"/></g><g class="a4266fad-2abb-4c32-b5f0-2df40eb9d7bf"><path class="b860c315-f645-4161-a2ba-d3a227936cb0" d="M3092.66,1401.15l35.35,92.79,71.48-27.22-83.12-218Q3105.63,1325.08,3092.66,1401.15Z"/></g><path class="feb808b8-516e-4015-93cb-965256e271cc" d="M3155.43,877.18c-.42,6.48-.64,9.72-1.08,16.2,86.23,40.4,135.91,116.73,157.41,203.4,47.89,193.1-36.85,440.87-111.75,627,27.35,7,41,10.5,68.34,17.62,75.67-188.81,155.9-430.82,113.39-634.95C3358.26,993.73,3271.47,896.86,3155.43,877.18Z"/><g class="b00ea7b4-e707-4ee8-b061-4f3714a8a097"><path class="b142c551-0fdb-4c96-9150-d03dc5e74680" d="M3036.55,1683.29q116.13,28.2,231.83,58.17c23-57.44,46.43-119.75,66.71-184.43-49.76,78.42-131,140-295.47,112.55C3038.62,1674.16,3037.58,1678.71,3036.55,1683.29Z"/></g><path class="b142c551-0fdb-4c96-9150-d03dc5e74680" d="M3268.36,1756.23a14.88,14.88,0,0,1-3.71-.48c-76.49-19.81-154.41-39.36-231.59-58.1a14.78,14.78,0,0,1-10.92-17.63,5311.37,5311.37,0,0,0,118.57-803.88,14.76,14.76,0,0,1,17.21-13.53c116.64,19.78,212.39,116.58,238.28,240.87,43.56,209.21-38.11,453.77-114.13,643.47A14.79,14.79,0,0,1,3268.36,1756.23Zm-214.19-83.86c68.45,16.69,137.38,34,205.29,51.52,73.05-184.05,148.86-417.25,107.81-614.38C3345.05,1002.8,3266.42,918.57,3169,895A5342.55,5342.55,0,0,1,3054.17,1672.37Z"/><path class="aca535b4-b39a-4c21-bab3-4c45a261fbce" d="M2965,2114h0a47.91,47.91,0,0,1-30.21-60q57.29-183.7,101.73-370.68c36.72,8.85,55.07,13.34,91.75,22.47q-45.33,190.58-103.67,377.32C3016.54,2108.53,2989.76,2122.27,2965,2114Z"/><path class="b142c551-0fdb-4c96-9150-d03dc5e74680" d="M2979.78,2131.2a61.18,61.18,0,0,1-19.43-3.19c-32.16-10.75-49.94-46-39.61-78.51,37.73-121,71.87-245.41,101.43-369.64a14.79,14.79,0,0,1,17.84-10.94c37.19,9,55.22,13.39,91.86,22.5a14.77,14.77,0,0,1,10.8,17.76c-30.22,127.07-65.19,254.36-103.94,378.32a62.24,62.24,0,0,1-31.25,37A61,61,0,0,1,2979.78,2131.2Zm67.69-430.08c-28.91,120.09-62,240.19-98.54,357.24-5.5,17.32,3.84,36,20.79,41.63h0a31.34,31.34,0,0,0,24.37-1.83,32.82,32.82,0,0,0,16.45-19.55c37.09-118.61,70.71-240.37,100-362.05C3087.27,1710.8,3071,1706.81,3047.47,1701.12Z"/><path class="e8a8b3a6-69d0-4740-aa3e-665af2c1b757" d="M2980.84,1740.8c17.94,49.23-20.07,171.75-72.06,178.38-65.64,8.38-66.3-130.34-42.83-170.09C2895.28,1699.42,2964.38,1695.62,2980.84,1740.8Z"/><path class="e8a8b3a6-69d0-4740-aa3e-665af2c1b757" d="M2908.78,1919.18a35.19,35.19,0,0,0,6.09-1.33c48.84-14.85,83.23-129.77,66-177a18,18,0,0,0-.89-2.11c-17.77-42.92-85.18-38.49-114,10.38C2842.47,1788.86,2843.14,1927.56,2908.78,1919.18Z"/><g class="b00ea7b4-e707-4ee8-b061-4f3714a8a097"><path class="b142c551-0fdb-4c96-9150-d03dc5e74680" d="M2914.87,1917.85c48.84-14.85,83.23-129.77,66-177a18,18,0,0,0-.89-2.11c-24.37-20.41-52.14.9-61.35,28.48C2908.57,1797.27,2889.1,1911.07,2914.87,1917.85Z"/></g><path class="b142c551-0fdb-4c96-9150-d03dc5e74680" d="M2903.31,1934.31c-18.46,0-34.59-9.23-45.95-26.5-29.25-44.42-23.34-133.7-4.14-166.23,18.64-31.56,52.64-49.89,86.55-46.79,25.94,2.39,46.48,17.7,54.95,41h0c14.69,40.31-2.53,111.83-27.83,153.35-16.24,26.65-35.69,42.13-56.24,44.75A57.32,57.32,0,0,1,2903.31,1934.31ZM2932.72,1724c-18,0-40.55,9.72-54,32.58-14.48,24.54-18.35,102,3.37,135,8.68,13.2,17.85,13.87,24.87,13,11.17-1.42,23.5-12.36,34.74-30.81,23.55-38.64,35.61-99.58,25.31-127.85h0c-6.2-17-21.39-20.86-29.9-21.65C2935.65,1724.08,2934.2,1724,2932.72,1724Z"/><g class="b00ea7b4-e707-4ee8-b061-4f3714a8a097"><path class="b142c551-0fdb-4c96-9150-d03dc5e74680" d="M3183.11,1920c-17.38-105.16-128.81-188.83-192.56-160.79S2883.26,2000.87,2886.73,2053s63.54,56.38,117.43,56.38c21.51,0,46.35-32.17,80.28-55C3135.52,2020.09,3193.56,1983.23,3183.11,1920Z"/></g><path class="e8a8b3a6-69d0-4740-aa3e-665af2c1b757" d="M3139.93,2107.56s75.34-130.37,58-235.54-128.82-188.83-192.56-160.79S2898,1952.85,2901.51,2005s140.8,102.56,140.8,102.56,20.51-21.43,56.47-28.68C3121.79,2074.24,3139.93,2107.56,3139.93,2107.56Z"/><g class="b00ea7b4-e707-4ee8-b061-4f3714a8a097"><path class="b142c551-0fdb-4c96-9150-d03dc5e74680" d="M2901.5,2005c3.47,52.16,140.81,102.58,140.81,102.58s30-14.46,24.75-51.62-109.51,5.22-119.9-114.82c-3.14-36.26,17.91-150.82,52-226.55C2938.77,1753.06,2898.14,1954.56,2901.5,2005Z"/></g><path class="b142c551-0fdb-4c96-9150-d03dc5e74680" d="M3042.31,2122.34a14.67,14.67,0,0,1-5.09-.91c-24.43-9-146.53-56.69-150.45-115.45-3.51-52.54,38.28-275.57,112.61-308.27,27.15-12,61.76-7.92,97.39,11.38,48.74,26.39,103.42,86.26,115.7,160.52,18,109.14-56.56,239.83-59.74,245.34a14.78,14.78,0,0,1-25.59-14.78c.72-1.26,72.47-127.12,56.17-225.74-10.64-64.4-58.2-116.39-100.6-139.35-27-14.64-53.06-18.4-71.44-10.32-51.72,22.75-98.76,223.09-95,279.26,2,29.36,77.87,70.11,131.15,89.67a14.78,14.78,0,0,1-5.09,28.65Z"/><path class="b142c551-0fdb-4c96-9150-d03dc5e74680" d="M2829.75,2449.13a14.74,14.74,0,0,1-7.72-2.19c-186.05-114.2-191.54-357.55-191.69-367.86a14.78,14.78,0,0,1,14.57-15h.21a14.78,14.78,0,0,1,14.77,14.56h0c0,2.37,5.59,237.52,177.6,343.1a14.78,14.78,0,0,1-7.74,27.37Z"/><path class="e8a8b3a6-69d0-4740-aa3e-665af2c1b757" d="M2512.51,2890.07s-91.28,142.43-512.23,171.8c-420.95-29.37-512.23-171.8-512.23-171.8s-22.53-113.74,48.58-342.24c19.76-63.42,46.72-135.67,83.4-216.83q10.86-24.09,22.94-49.27h714.62q12.07,25.16,22.94,49.24c36.67,81.11,63.64,153.4,83.36,216.83C2535.08,2776.3,2512.51,2890.07,2512.51,2890.07Z"/><path class="b142c551-0fdb-4c96-9150-d03dc5e74680" d="M2417.41,2404.32c11.11,18,20.5,36.75,29.66,55.65,4.11,9.63,8.3,19.25,12.08,29s7.78,19.47,11.22,29.38c13.7,39.65,25.78,79.95,34.48,121.15,2.34,10.25,4.67,20.5,6.55,30.87s4.1,20.65,5.9,31l4.94,31.25c1.48,10.45,2.66,21,4,31.43s1.91,21.09,2.88,31.63c.49,10.62,1.27,21.19,1.37,31.86l.15,16-.43,16.09c-.3,5.4-.62,10.78-1.07,16.22s-1,10.62-2.15,17l0,.2a12.63,12.63,0,0,1-2,4.9c-4.6,6.64-8.48,10.61-12.85,15.46-4.46,4.25-8.73,8.85-13.41,12.71s-9.14,8.1-14,11.61l-14.49,10.77-15,9.76-7.53,4.85-7.77,4.36-15.54,8.7c-5.14,3-10.59,5.25-15.88,7.9l-16,7.69c-5.3,2.6-10.84,4.57-16.25,6.89l-16.33,6.7c-2.73,1.09-5.44,2.27-8.19,3.29l-8.31,2.88-33.26,11.47-33.73,9.65c-5.63,1.56-11.22,3.31-16.89,4.7l-17,3.94-34.1,7.87c-11.43,2.23-22.91,4.18-34.36,6.28-11.47,1.95-22.88,4.38-34.4,5.93-23,3-46.07,6.42-69.15,8.94l-69.36,6.25-1-29.52h.48l-1,29.52-69.36-6.25c-23.09-2.52-46.1-6-69.15-8.94-11.52-1.55-22.93-4-34.4-5.93-11.46-2.1-22.93-4.05-34.36-6.28l-34.1-7.87-17.06-3.94c-5.66-1.39-11.25-3.14-16.89-4.7l-33.73-9.65-33.25-11.47-8.32-2.88c-2.75-1-5.45-2.2-8.18-3.29l-16.33-6.7c-5.41-2.32-10.95-4.29-16.26-6.89l-16-7.69c-5.28-2.65-10.73-4.92-15.87-7.9l-15.54-8.7-7.77-4.36-7.53-4.85-15-9.76-14.49-10.77c-4.88-3.51-9.34-7.76-14-11.61s-9-8.46-13.41-12.71c-4.37-4.85-8.25-8.82-12.85-15.46a12.26,12.26,0,0,1-2-4.83l0-.27c-1.12-6.35-1.58-11.36-2.13-16.9s-.77-10.76-1.08-16.13l-.43-16,.14-15.91c.09-10.61.86-21.12,1.34-31.68,1-10.48,1.67-21,2.84-31.45,4.45-41.83,12.21-83,21.76-123.73,2.49-10.15,4.63-20.4,7.4-30.46s5.53-20.13,8.14-30.23,5.61-20.1,8.5-30.12l8.82-30c6.49-19.82,14.07-39.26,22.16-58.47,9-18.84,18.66-37.44,31-54.77a5.06,5.06,0,0,1,9.15,3.53l0,.17c-2.53,21.19-7.81,41.13-13.68,60.82-5.51,19.79-11.82,39.26-18.51,58.59-13.09,38.73-25.42,77.81-34.21,117.68-9.33,39.72-16.87,79.86-21.17,120.21-1.12,10.08-1.8,20.17-2.73,30.26-.44,10.07-1.19,20.18-1.27,30.22l-.14,15.07.41,15c.28,4.94.57,9.91,1,14.79s1,10,1.69,13.83l-2-5.1.7,1,1.12,1.41c.78.94,1.42,1.88,2.31,2.84l5.19,5.76c3.91,3.66,7.45,7.57,11.67,11s8.09,7.2,12.57,10.41l13.23,9.83,13.94,9,7,4.51,7.3,4.09,14.59,8.17c4.82,2.81,10,5,15,7.48l15.15,7.3c5,2.48,10.37,4.36,15.54,6.57l15.62,6.41c2.61,1.05,5.19,2.18,7.83,3.17l8,2.76,32,11.06,32.69,9.34c5.46,1.51,10.86,3.21,16.37,4.57l16.61,3.82,33.2,7.67c11.17,2.17,22.4,4.08,33.59,6.13s22.36,4.29,33.66,5.8c22.62,2.9,45.17,6.31,67.85,8.78l68.24,6.15.3,0a14.77,14.77,0,0,1-1.32,29.48H2000a14.77,14.77,0,0,1-1.39-29.48l.37,0,68.24-6.15c22.68-2.47,45.23-5.88,67.85-8.78,11.3-1.51,22.43-3.89,33.66-5.8s22.42-4,33.59-6.13l33.2-7.67,16.61-3.82c5.5-1.36,10.91-3.06,16.37-4.57l32.69-9.34,32-11.06,8-2.76c2.64-1,5.22-2.12,7.83-3.17l15.62-6.41c5.17-2.21,10.51-4.09,15.54-6.57l15.15-7.3c5-2.52,10.22-4.67,15-7.48l14.6-8.17,7.3-4.09,7-4.51,13.94-9,13.23-9.83c4.48-3.21,8.35-7,12.57-10.41s7.76-7.37,11.67-11l5.19-5.76c.89-1,1.53-1.9,2.31-2.84l1.12-1.41.7-1-2,5.1c.68-3.85,1.25-9.15,1.7-13.92s.7-9.9,1-14.87l.4-15.06-.15-15.16c-.08-10.11-.84-20.27-1.3-30.41-.95-10.14-1.63-20.3-2.77-30.43-4.3-40.6-12.15-80.95-22.06-120.76-9.65-39.89-21.83-79.16-33.29-118.69-6.23-19.62-12.33-39.31-17.77-59.29-5.88-19.83-11.53-39.79-15.47-60.55l0-.16a5,5,0,0,1,9.16-3.56Z"/><path class="e8a8b3a6-69d0-4740-aa3e-665af2c1b757" d="M2601.78,1922.68h0a12.64,12.64,0,0,1-12.68-12.6L2588,1545.93a12.65,12.65,0,0,1,12.6-12.68h0a132.63,132.63,0,0,1,133,132.23l.37,124.18A132.63,132.63,0,0,1,2601.78,1922.68Z"/><path class="b142c551-0fdb-4c96-9150-d03dc5e74680" d="M2601.75,1925.34a15.32,15.32,0,0,1-15.3-15.25l-1.1-364.15a15.32,15.32,0,0,1,15.25-15.34h.42c74.4,0,135.05,60.42,135.27,134.87l.38,124.17c.22,74.6-60.29,135.47-134.88,135.7h0Zm-.73-389.43h-.4a10,10,0,0,0-10,10l1.1,364.15a10,10,0,0,0,10,10h0a130.11,130.11,0,0,0,129.58-130.36l-.37-124.17C2730.76,1594,2672.5,1535.91,2601,1535.91Z"/><g class="b00ea7b4-e707-4ee8-b061-4f3714a8a097"><path class="b142c551-0fdb-4c96-9150-d03dc5e74680" d="M2733.83,1731.43l.19,58.24a132.69,132.69,0,0,1-132.24,133,12.68,12.68,0,0,1-12.69-12.63l-.32-96.81a12.67,12.67,0,0,0,11.53,7.47l8.63,0A132.52,132.52,0,0,0,2733.83,1731.43Z"/></g><path class="b142c551-0fdb-4c96-9150-d03dc5e74680" d="M2601.75,1937.46a27.45,27.45,0,0,1-27.42-27.34l-1.1-364.14a27.45,27.45,0,0,1,27.33-27.5h.46a147.41,147.41,0,0,1,147.39,147l.38,124.17c.24,81.28-65.68,147.6-147,147.85h-.08Zm1-389.42,1.08,359.84a117.85,117.85,0,0,0,115.37-118.18l-.38-124.18A117.86,117.86,0,0,0,2602.79,1548Z"/><path class="e8a8b3a6-69d0-4740-aa3e-665af2c1b757" d="M1398.66,1536.87h0a12.65,12.65,0,0,1,12.68,12.61l1.1,364.14a12.64,12.64,0,0,1-12.61,12.68h0a132.63,132.63,0,0,1-133-132.23l-.38-124.17A132.64,132.64,0,0,1,1398.66,1536.87Z"/><path class="b142c551-0fdb-4c96-9150-d03dc5e74680" d="M1399.43,1929c-74.41,0-135-60.42-135.28-134.88l-.37-124.17c-.22-74.6,60.28-135.47,134.87-135.69h0a15.31,15.31,0,0,1,15.3,15.25l1.1,364.14a15.34,15.34,0,0,1-15.25,15.35Zm-.76-389.43c-71.67.22-129.8,58.69-129.58,130.36l.38,124.17c.21,71.54,58.48,129.58,130,129.58h.4a10,10,0,0,0,10-10l-1.1-364.14a10,10,0,0,0-10-10Z"/><g class="b00ea7b4-e707-4ee8-b061-4f3714a8a097"><path class="b142c551-0fdb-4c96-9150-d03dc5e74680" d="M1412.16,1812.6l.3,101a12.68,12.68,0,0,1-12.64,12.68,132.58,132.58,0,0,1-133-132.2l-.16-52.33a132.67,132.67,0,0,0,121.06,77.54l13.29,0A12.77,12.77,0,0,0,1412.16,1812.6Z"/></g><path class="b142c551-0fdb-4c96-9150-d03dc5e74680" d="M1399.43,1941.07c-81.07,0-147.15-65.83-147.4-147l-.37-124.18c-.25-81.27,65.68-147.6,147-147.84h.09a27.43,27.43,0,0,1,27.41,27.34l1.09,364.13a27.44,27.44,0,0,1-27.33,27.5Zm-2.86-389.39a117.85,117.85,0,0,0-115.36,118.17l.37,124.18a118,118,0,0,0,116.08,117.48Zm2.13,0Z"/><g class="b00ea7b4-e707-4ee8-b061-4f3714a8a097"><path class="b142c551-0fdb-4c96-9150-d03dc5e74680" d="M2541.28,2144.83a620.62,620.62,0,0,1-1081.49.63c227.1,130.25,330.31,92.94,332.71,92.05L1759,2281.73H2241l-33.47-44.22C2209.91,2238.4,2313.41,2275.82,2541.28,2144.83Z"/></g><circle class="e8a8b3a6-69d0-4740-aa3e-665af2c1b757" cx="2000.3" cy="1729.78" r="620.53"/><path class="b142c551-0fdb-4c96-9150-d03dc5e74680" d="M2000.72,2353c-14.18,0-28.4-.48-42.75-1.46-342.83-23.34-602.76-321.24-579.42-664.07s321.19-602.74,664.08-579.42,602.75,321.25,579.41,664.08C2599.68,2100.59,2325.21,2353,2000.72,2353Zm-.84-1241.1c-321.75,0-593.86,250.23-616,575.93-23.14,339.91,234.57,635.28,574.48,658.42s635.28-234.57,658.42-574.48l2.65.18-2.65-.18c23.14-339.91-234.58-635.28-574.48-658.42Q2021,1111.88,1999.88,1111.88Z"/><g class="b00ea7b4-e707-4ee8-b061-4f3714a8a097"><path class="b142c551-0fdb-4c96-9150-d03dc5e74680" d="M2619.3,1685.82a618.47,618.47,0,0,1,.11,86.11c-23.33,341.91-319.36,600.21-661.27,577s-600.21-319.36-577-661.27c.66-9.83,1.56-19.66,2.69-29.32,21.22,304.21,264,553.85,576.85,575.16C2292.8,2256.05,2581.55,2013.07,2619.3,1685.82Z"/></g><path class="b142c551-0fdb-4c96-9150-d03dc5e74680" d="M2000.73,2365.1c-14.46,0-29-.49-43.59-1.48-349.5-23.8-614.48-327.5-590.68-677s327.37-614.46,677-590.68,614.48,327.49,590.69,677h0C2611.34,2107.8,2331.53,2365.1,2000.73,2365.1Zm-.84-1241.1c-315.44,0-582.21,245.32-603.95,564.63-22.69,333.25,230,622.82,563.21,645.51s622.82-230,645.51-563.22-230-622.81-563.22-645.5Q2020.55,1124,1999.89,1124Zm619.51,647.93h0Z"/><path class="b142c551-0fdb-4c96-9150-d03dc5e74680" d="M2000.73,2365.1c-14.46,0-29-.49-43.59-1.48-349.5-23.8-614.48-327.5-590.68-677s327.37-614.46,677-590.68,614.48,327.49,590.69,677h0C2611.34,2107.8,2331.53,2365.1,2000.73,2365.1Zm-.84-1241.1c-315.44,0-582.21,245.32-603.95,564.63-22.69,333.25,230,622.82,563.21,645.51s622.82-230,645.51-563.22-230-622.81-563.22-645.5Q2020.55,1124,1999.89,1124Zm619.51,647.93h0Z"/><path class="b142c551-0fdb-4c96-9150-d03dc5e74680" d="M2615.85,1778.89c-6.42,121.26-51.74,231.76-124,321.34-54.17,67.16-268.11,178.39-524.42,167.14-237.65-10.44-447.07-148.53-493.85-221-62.39-96.71-95.79-211.37-89.37-332.63,17-320.88,299.71-439.32,639.83-421.32S2632.83,1458,2615.85,1778.89Z"/><path class="b142c551-0fdb-4c96-9150-d03dc5e74680" d="M2005.31,2291.76q-18.81,0-38-.83c-245.77-10.79-456.63-151.85-505.62-227.78-66.37-102.89-98.09-221-91.72-341.42,8.31-156.92,77.63-274.59,206-349.71,112.14-65.61,267.51-95.2,449.33-85.58s333.21,55.45,437.8,132.53c119.76,88.26,176.28,212.58,168,369.5-6.38,120.47-50.37,234.53-127.24,329.84C2453.08,2181.25,2258.15,2291.76,2005.31,2291.76Zm-42.81-977.43c-200.46,0-544.17,52.5-563,409-6,114.22,24,226.2,87,323.83,44.75,69.36,249.76,204.08,482.09,214.28,257.49,11.27,463.8-101.59,512.26-161.66,72.94-90.44,114.68-198.62,120.73-312.84h0c7.75-146.37-44.74-262.16-156-344.16-99.93-73.64-245.8-117.49-421.83-126.8C2005.57,1315,1984.93,1314.33,1962.5,1314.33Z"/><g class="b00ea7b4-e707-4ee8-b061-4f3714a8a097"><path class="a4044ed4-7c56-42a6-9c0e-152f79a32c95" d="M2512.4,1482c71.48,75.82,110.73,176.79,103.93,305.67-6.42,121.29-51.76,231.77-124,321.36-54.18,67.16-268.14,178.39-524.45,167.16-90.5-4-176.87-26.44-251.77-56.81,315.35,7.09,576-129.53,643.19-212.83,91.7-113.69,149.21-254,157.34-407.82A627.68,627.68,0,0,0,2512.4,1482Z"/></g><path class="b142c551-0fdb-4c96-9150-d03dc5e74680" d="M2578.21,1518.25a14.68,14.68,0,0,1-10.4-4.3l-1.14-1.15-1-1.45c-96.83-152.17-294.38-247-542-260.07-249-13.2-455.42,63-566.29,208.92l-1.32,1.51a14.78,14.78,0,0,1-21.86-19.85c117-153.57,332.33-233.8,591-220.09,257.14,13.61,463.13,113.27,565.2,273.45a14.79,14.79,0,0,1-12.27,23Z"/><g class="bf5e1bb0-ed55-4d80-9df3-419fd4bf4ff7"><path class="e8a8b3a6-69d0-4740-aa3e-665af2c1b757" d="M1512.91,1920.73s-82.64-321.82,94.64-438.94,422.7-103.62,416.13-88.18c0,0-275.21,51.4-392.9,260.6C1540,1815.52,1512.91,1920.73,1512.91,1920.73Z"/></g><path class="e8a8b3a6-69d0-4740-aa3e-665af2c1b757" d="M2245.22,2945.59c147.72,30.58,242.19-9.18,289.62-40a75.76,75.76,0,0,0,34.09-68.64c0-.71-.1-1.43-.14-2.15-3.4-50.88-55-84.28-102.64-66.2-53.47,20.27-131.39,35.87-238.13,25.77C2198.56,2791.6,2193.26,2934.84,2245.22,2945.59Z"/><path class="b142c551-0fdb-4c96-9150-d03dc5e74680" d="M2346.7,2971.24c-31.47,0-66.27-3.27-104.48-11.18-45.57-9.43-56.2-84.37-49-132,6.68-44.41,25.66-49.3,36.23-48.35,88.06,8.34,166,0,231.49-24.87a90.81,90.81,0,0,1,122.62,79l.14,2.23a90.48,90.48,0,0,1-40.78,81.93C2508.57,2940.29,2443.46,2971.24,2346.7,2971.24Zm-117.44-161.9c-7.11,9.51-13,52.63-3.73,88.38,5,19.28,13.28,31.46,22.68,33.4h0c145.32,30.07,236.91-10.84,278.58-37.91a61,61,0,0,0,27.4-55.26l-.14-2a61.26,61.26,0,0,0-82.66-53.54C2402.25,2808.64,2320.81,2817.71,2229.26,2809.34Z"/><path class="e8a8b3a6-69d0-4740-aa3e-665af2c1b757" d="M1755.81,2945.59c-147.73,30.58-242.2-9.18-289.62-40A75.76,75.76,0,0,1,1432.1,2837c0-.71.09-1.43.14-2.15,3.4-50.88,55-84.28,102.64-66.2,53.47,20.27,131.39,35.87,238.12,25.77C1802.47,2791.6,1807.77,2934.84,1755.81,2945.59Z"/><g class="b00ea7b4-e707-4ee8-b061-4f3714a8a097"><path class="b142c551-0fdb-4c96-9150-d03dc5e74680" d="M2534.85,2905.62c-47.42,30.81-141.91,70.55-289.63,40-35.09-7.24-44.07-74.91-37.12-117.25,4.46,29.22,16.14,55.19,37.12,59.51,147.72,30.59,242.21-9.2,289.63-40a74.71,74.71,0,0,0,29-35.57,75.81,75.81,0,0,1,5,22.53c0,.74.07,1.44.11,2.18A75.74,75.74,0,0,1,2534.85,2905.62Z"/></g><g class="b00ea7b4-e707-4ee8-b061-4f3714a8a097"><path class="b142c551-0fdb-4c96-9150-d03dc5e74680" d="M1755.82,2945.59c-147.75,30.58-242.21-9.16-289.64-40a75.87,75.87,0,0,1-34.09-68.63c0-.74.11-1.44.15-2.18a76.12,76.12,0,0,1,5-22.53,75.29,75.29,0,0,0,29,35.57c47.43,30.8,141.89,70.59,289.64,40,21-4.32,32.62-30.29,37.09-59.51C1799.85,2870.68,1790.87,2938.35,1755.82,2945.59Z"/></g><path class="b142c551-0fdb-4c96-9150-d03dc5e74680" d="M1654.32,2971.24c-96.77,0-161.87-30.95-196.18-53.24a90.54,90.54,0,0,1-40.78-82l.13-2a90.8,90.8,0,0,1,122.62-79.18c65.54,24.85,143.42,33.23,231.5,24.87,10.66-1,29.55,3.93,36.22,48.35,7.17,47.67-3.46,122.61-49,132h0C1720.61,2968,1685.79,2971.24,1654.32,2971.24ZM1508,2778.42a61.51,61.51,0,0,0-61,57.39l-.14,2.07a61.05,61.05,0,0,0,27.4,55.34c41.67,27.06,133.25,68,278.57,37.9h0c9.4-1.94,17.67-14.12,22.68-33.4,9.29-35.75,3.38-78.87-3.72-88.38-91.54,8.37-173-.7-242.13-26.91A61,61,0,0,0,1508,2778.42Z"/><path class="e8a8b3a6-69d0-4740-aa3e-665af2c1b757" d="M2251.59,2774.39v203.17a68.66,68.66,0,0,1-68.51,68.45H1809a68.65,68.65,0,0,1-68.45-68.45V2774.39a68.71,68.71,0,0,1,68.45-68.51h374.08a68.77,68.77,0,0,1,68.51,68.51Z"/><g class="b00ea7b4-e707-4ee8-b061-4f3714a8a097"><path class="b142c551-0fdb-4c96-9150-d03dc5e74680" d="M2251.59,2774.39v203.17a68.66,68.66,0,0,1-68.51,68.45H1809a68.65,68.65,0,0,1-68.45-68.45V2851.22c0,62.55,49,77,63.7,83.82,66.29,30.67,229,29.34,307.48-12.35,72.34-38.5,110.4-124.42,129-185.1A67.86,67.86,0,0,1,2251.59,2774.39Z"/></g><path class="b142c551-0fdb-4c96-9150-d03dc5e74680" d="M2183.1,3060.81H1809a83.36,83.36,0,0,1-83.27-83.27V2774.4a83.36,83.36,0,0,1,83.27-83.27H2183.1a83.36,83.36,0,0,1,83.27,83.27v203.14A83.36,83.36,0,0,1,2183.1,3060.81ZM1809,2720.68a53.78,53.78,0,0,0-53.72,53.72v203.14a53.78,53.78,0,0,0,53.72,53.72H2183.1a53.78,53.78,0,0,0,53.72-53.72V2774.4a53.78,53.78,0,0,0-53.72-53.72Z"/><circle class="ad60a61a-c161-4cd2-a34e-337e827b6151" cx="2128.58" cy="2875.97" r="59.07"/><g class="b00ea7b4-e707-4ee8-b061-4f3714a8a097"><path class="b142c551-0fdb-4c96-9150-d03dc5e74680" d="M2187.63,2876a59.06,59.06,0,1,1-118.12,0,57.45,57.45,0,0,1,2.9-18.24,59.05,59.05,0,0,0,112.32,0A57.73,57.73,0,0,1,2187.63,2876Z"/></g><path class="b142c551-0fdb-4c96-9150-d03dc5e74680" d="M2128.58,2946.12a70.15,70.15,0,1,1,70.16-70.15A70.23,70.23,0,0,1,2128.58,2946.12Zm0-118.14a48,48,0,1,0,48,48A48,48,0,0,0,2128.58,2828Z"/><path class="b142c551-0fdb-4c96-9150-d03dc5e74680" d="M1961.19,3060.81a14.78,14.78,0,0,1-14.78-14.77V2942a67.43,67.43,0,0,0-26.74-53.61l-9.55-7.18A97.14,97.14,0,0,1,1871.6,2804v-98.13a14.78,14.78,0,1,1,29.55,0V2804a67.44,67.44,0,0,0,26.74,53.6l9.55,7.18A97.15,97.15,0,0,1,1976,2942v104A14.77,14.77,0,0,1,1961.19,3060.81Z"/><polygon class="bd3ad710-418b-4202-9661-b713138996dd" points="2919.99 3239.74 1065.15 3239.74 1249.84 2865.79 2735.3 2865.79 2919.99 3239.74"/><rect class="bd3ad710-418b-4202-9661-b713138996dd" x="1065.15" y="3239.74" width="1854.84" height="79.96"/><polygon class="bd3ad710-418b-4202-9661-b713138996dd" points="2729.51 3414.44 2645.86 3414.44 2634.78 3319.7 2740.59 3319.7 2729.51 3414.44"/><path class="b142c551-0fdb-4c96-9150-d03dc5e74680" d="M2729.51,3429.21h-83.65a14.77,14.77,0,0,1-14.68-13.06l-11.08-94.73a14.77,14.77,0,0,1,14.68-16.49h105.81a14.77,14.77,0,0,1,14.68,16.49l-11.08,94.73A14.77,14.77,0,0,1,2729.51,3429.21Zm-70.5-29.55h57.35l7.63-65.18h-72.61Z"/><polygon class="bd3ad710-418b-4202-9661-b713138996dd" points="1338.31 3414.44 1254.66 3414.44 1243.58 3319.7 1349.39 3319.7 1338.31 3414.44"/><g class="b00ea7b4-e707-4ee8-b061-4f3714a8a097"><path class="b142c551-0fdb-4c96-9150-d03dc5e74680" d="M1349.38,3319.69l-11.08,94.75h-83.63l-3.58-30.62h30.61a32.1,32.1,0,0,0,31.88-28.38l4.18-35.75Z"/></g><g class="b00ea7b4-e707-4ee8-b061-4f3714a8a097"><path class="b142c551-0fdb-4c96-9150-d03dc5e74680" d="M2634.78,3319.69l11.08,94.75h83.63l3.58-30.62h-30.61a32.1,32.1,0,0,1-31.88-28.38l-4.18-35.75Z"/></g><path class="b142c551-0fdb-4c96-9150-d03dc5e74680" d="M1338.31,3429.21h-83.65a14.77,14.77,0,0,1-14.68-13.06l-11.08-94.73a14.77,14.77,0,0,1,14.68-16.49h105.81a14.77,14.77,0,0,1,14.68,16.49L1353,3416.15A14.77,14.77,0,0,1,1338.31,3429.21Zm-70.51-29.55h57.36l7.63-65.18h-72.61Z"/><polygon class="aa589d48-9b3a-4570-ab9f-f4f3484eee60" points="2919.99 3239.74 1065.15 3239.74 1249.84 2865.79 2735.3 2865.79 2919.99 3239.74"/><g class="af7d5b37-23ee-42ad-9b13-194088f3973e"><path class="beab4453-aa4a-49ab-98da-fee3d42d039a" d="M1199,2887.74a414.31,414.31,0,0,1-54.72-3.62,7.39,7.39,0,0,1,2-14.64c62.9,8.56,146.53,3.26,192.7-37.33,23.85-21,35.81-49.7,35.54-85.37a7.39,7.39,0,0,1,7.34-7.44h0a7.39,7.39,0,0,1,7.39,7.33c.3,40.15-13.35,72.64-40.57,96.57C1307.33,2879.69,1245.51,2887.74,1199,2887.74Z"/><path class="beab4453-aa4a-49ab-98da-fee3d42d039a" d="M1366.78,3362.58c-45.69,0-59.89-45.29-71.31-81.72-4.54-14.47-8.83-28.14-14.44-38-11.36-20-25.93-31.7-44.56-35.91-44.09-9.94-101.71,25-147,56.56a7.38,7.38,0,1,1-8.44-12.12c50.73-35.37,109.25-70,158.68-58.85,22.59,5.1,40.81,19.57,54.15,43,6.4,11.25,10.92,25.65,15.7,40.91,11,35.08,22.37,71.36,57.24,71.36h.4a7.39,7.39,0,0,1,0,14.77Z"/><path class="beab4453-aa4a-49ab-98da-fee3d42d039a" d="M1202.29,3055.31c-48.21,0-98.27-28.19-138.12-50.63l-5.29-3a7.39,7.39,0,0,1,7.24-12.88l5.29,3c54,30.4,127.95,72,184,32.07,15.34-10.94,25.73-28,35.78-44.45,9.51-15.58,19.33-31.69,33.45-42.84,28.11-22.21,65.83-21.57,102.28-20.94,39.14.65,76.06,1.29,99.18-25,36.05-41.07,18.48-107.64,12.24-127.06a7.38,7.38,0,0,1,14.06-4.52c6.85,21.29,26,94.42-15.2,141.32-27.63,31.48-69.77,30.73-110.53,30.07-35.43-.61-68.9-1.18-92.87,17.76-12,9.52-20.76,23.81-30,39-10.82,17.74-22,36.08-39.82,48.78C1244.49,3049.81,1223.57,3055.31,1202.29,3055.31Z"/><path class="beab4453-aa4a-49ab-98da-fee3d42d039a" d="M1512.9,3164.18c-52.37,0-113.23-22.35-169.08-45.07-53.87-21.9-100.72-4.28-150.33,14.37-50.69,19.06-103.11,38.77-165.16,16.17a7.39,7.39,0,0,1,5.06-13.89c56.9,20.74,104.51,2.84,154.9-16.11,50.09-18.83,101.89-38.31,161.09-14.23,77.66,31.59,165.14,62.6,220.22,30.51,30.09-17.53,48.13-52.18,55.15-105.95,5.54-42.38,22.78-74.81,51.24-96.41,39.38-29.86,100.61-39.05,182-27.35,10.8,1.56,23.7,3.71,38.63,6.2,98.36,16.4,281.45,46.94,348.06-19.29,22.11-22,29.66-52.49,23.09-93.26a7.39,7.39,0,0,1,14.59-2.35c7.27,45.16-1.9,80.85-27.26,106.08-72,71.58-252.85,41.42-360.91,23.39-14.85-2.47-27.67-4.61-38.31-6.14-77.3-11.14-134.81-2.9-170.92,24.49-25.2,19.12-40.51,48.24-45.52,86.55-7.54,57.8-28.52,97.1-62.36,116.81C1558.18,3159.68,1536.39,3164.18,1512.9,3164.18Z"/><path class="beab4453-aa4a-49ab-98da-fee3d42d039a" d="M1711.67,3430.81l-.44,0a7.39,7.39,0,0,1-6.94-7.81c4.22-71.38,42.69-156.42,119.14-185.5,53.26-20.27,105.91-25.48,165.65-16.42,11.81,1.79,23.68,4.24,35.15,6.6,29.62,6.1,57.59,11.86,85.93,7.74,77.07-11.21,91.45-66.59,106.67-125.21,16.07-61.9,32.68-125.92,124.33-135.67,81.28-8.65,163.69-21.39,200.22-72.76,20.67-29.06,25-68,13.14-118.9a7.39,7.39,0,1,1,14.39-3.34c12.85,55.3,7.78,98.09-15.49,130.81-40.09,56.36-126.07,69.88-210.7,78.88-81.47,8.68-96.1,65-111.59,124.69-15.76,60.71-32.06,123.49-118.84,136.12-30.93,4.5-61.48-1.8-91-7.89-11.29-2.32-23-4.73-34.38-6.46-57.13-8.67-107.4-3.71-158.19,15.61C1758.41,3278,1723,3357.22,1719,3423.85A7.39,7.39,0,0,1,1711.67,3430.81Z"/><path class="beab4453-aa4a-49ab-98da-fee3d42d039a" d="M1403.59,3441.54a7.39,7.39,0,0,1-6.91-10c31.34-82.94,79.91-153.12,136.74-197.61,71.59-56.06,138.73-83.45,217.72-88.79,9-.61,19.36-.73,31.41-.87,68.17-.81,171.18-2,203-93.92a7.39,7.39,0,1,1,14,4.84c-35.26,101.71-148.92,103-216.83,103.85-11.82.14-22,.26-30.58.84-75.85,5.14-140.5,31.56-209.61,85.68-53.94,42.23-102.06,111.93-132,191.21A7.4,7.4,0,0,1,1403.59,3441.54Z"/><path class="beab4453-aa4a-49ab-98da-fee3d42d039a" d="M2761.94,3375.06a125.72,125.72,0,0,1-12.56-.66,7.39,7.39,0,0,1,1.49-14.7c69.28,7,79.75-50.91,90.88-112.24,7.61-41.93,14.8-81.54,42.61-97,16.73-9.29,38.51-8.37,66.58,2.8a7.39,7.39,0,1,1-5.45,13.73c-23.7-9.42-41.36-10.6-54-3.61-21.7,12-28.28,48.29-35.24,86.69C2846.13,3306.09,2833.6,3375.06,2761.94,3375.06Z"/><path class="beab4453-aa4a-49ab-98da-fee3d42d039a" d="M2002.71,3464.79a7.4,7.4,0,0,1-6.75-4.37c-16.47-36.79-18.51-65.47-6.24-87.71,22.16-40.16,85-49.11,151.59-58.57,69.71-9.92,141.8-20.18,154.62-68.53,33.72-127.18,100-176.82,236.27-177.07,9.15-.12,20.14.48,31.66,1,53.67,2.46,127.1,5.83,150.85-35.88,6.59-11.57,9.12-26,11.8-41.29,3.38-19.3,6.89-39.25,19.18-55,38.23-48.81,101.22-22.94,147.22-4l8.66,3.54a7.39,7.39,0,0,1-5.55,13.7l-8.73-3.57c-43.95-18.07-98.63-40.53-130-.52-10,12.78-13.05,30.08-16.26,48.39-2.78,15.86-5.65,32.25-13.51,46.05-28.22,49.58-106.91,46-164.36,43.33-11.35-.52-21.93-.89-31-1-129.81.24-190,45.24-222,166.08-15.33,57.81-92.35,68.77-166.82,79.37-60,8.54-122.13,17.37-140.73,51.08-9.87,17.89-7.65,42.27,6.79,74.53a7.38,7.38,0,0,1-3.73,9.76A7.29,7.29,0,0,1,2002.71,3464.79Z"/><path class="beab4453-aa4a-49ab-98da-fee3d42d039a" d="M2196.45,3561.35a7.38,7.38,0,0,1-7.29-6.26c-9.13-59.35,51-93,109.09-125.46,48.49-27.11,98.63-55.14,110.19-97.19,34.84-126.68,101.09-175.25,236.69-173.67,9.15.12,19.9.76,31.28,1.44,53.1,3.2,125.81,7.55,149.89-33.69,6.7-11.47,9.42-25.86,12.31-41.08,3.65-19.26,7.42-39.18,19.9-54.71,38.75-48.22,100.83-21.45,146.16-1.89l8.33,3.57a7.39,7.39,0,0,1-5.79,13.6l-8.39-3.61c-43.25-18.65-97.07-41.87-128.79-2.41-10.17,12.64-13.44,29.91-16.91,48.2-3,15.79-6.08,32.11-14.06,45.78-28.67,49.08-106.64,44.4-163.54,41-11.2-.67-21.77-1.31-30.57-1.41-2.27,0-4.53-.05-6.76-.05-124.31,0-183,44.66-215.5,162.85-13.2,48-66.09,77.59-117.23,106.18-56.19,31.42-109.27,61.1-101.7,110.31a7.39,7.39,0,0,1-6.18,8.43A8.71,8.71,0,0,1,2196.45,3561.35Z"/></g><path class="b142c551-0fdb-4c96-9150-d03dc5e74680" d="M2920,3334.48H1065.15a14.78,14.78,0,0,1-14.78-14.78v-80a14.78,14.78,0,0,1,14.78-14.77H2920a14.77,14.77,0,0,1,14.77,14.77v80A14.78,14.78,0,0,1,2920,3334.48Zm-1840.07-29.55H2905.21v-50.41H1079.92Z"/><g class="b00ea7b4-e707-4ee8-b061-4f3714a8a097"><rect class="b142c551-0fdb-4c96-9150-d03dc5e74680" x="1065.14" y="3279.72" width="1854.83" height="39.97"/></g><g class="b74eee70-8c69-49e9-afa0-c5e286646209"><path class="e8a8b3a6-69d0-4740-aa3e-665af2c1b757" d="M2920,3239.76H2890L2734.9,2925.64a53.79,53.79,0,0,0-48.23-30H1298.48a53.8,53.8,0,0,0-48.23,30l-155.12,314.12h-30l184.69-374H2735.28Z"/></g><path class="b142c551-0fdb-4c96-9150-d03dc5e74680" d="M2920,3254.52H1065.15a14.78,14.78,0,0,1-13.25-21.32l184.69-373.95a14.78,14.78,0,0,1,13.25-8.23H2735.3a14.77,14.77,0,0,1,13.24,8.23l184.69,373.95a14.77,14.77,0,0,1-13.24,21.32ZM1088.92,3225H2896.21l-170.09-344.4H1259Z"/><g class="b00ea7b4-e707-4ee8-b061-4f3714a8a097"><path class="b142c551-0fdb-4c96-9150-d03dc5e74680" d="M2587.31,3046.9c25.77-40.05-22.61-98-45.78-130.58v0c-44-60-147.39-130-170.32-100.13h0L2297,2885.77c-39.62-32.65-130.45-90-165.92-58.8-7.53,9.15-24.89,32-45.2,57.74-39.25-49.6-105.22-94.27-126.14-74.11l-80,60c-40.38-58.25-84.93-92.85-109.64-77.77v0c-11.19,6.35-91.46,51.91-106.66,60.51-16.26,8.38-16.1,40.19-12.21,60.15-68.22-18.77-243.17,4.19-238.34,54.63,7.58,120.94-37.1,175.53,162.41,177.25,43-2.55,194.39-25.93,220.65-16.25l-.09-.08a33.09,33.09,0,0,0,23.57-.74c65.74-26.5,115.5-28.71,173.13.59,16.89,8.59,29.33,11.57,29.3,11.55,26.67,4.93,57.17-11,65.49-13.36,62.15-17.75,137.56,15.79,213.4-4.53,51.37-13.76,153.26,34.83,195.92,9.19C2522.3,3107.8,2566.24,3066.65,2587.31,3046.9Z"/></g><path class="bea113d8-8629-49be-915b-3e2388e7d810" d="M1734.69,3046.49a22.37,22.37,0,0,1-2.25,10.09c-12.49,26.7-75.91,48.24-152.78,50.09-86.36,2.1-157-21.43-157.77-52.57-.44-18.61-3-122.89-3-122.89l209.81-5.1,103-2.47v.48C1731.88,2931.39,1734,3016.68,1734.69,3046.49Z"/><path class="ffd1a665-439b-4802-83e4-c060ab223a0a" d="M1734.69,3046.49a22.37,22.37,0,0,1-2.25,10.09c-12.49,26.7-75.91,48.24-152.78,50.09-86.36,2.1-157-21.43-157.77-52.57-.44-18.61-3-122.89-3-122.89l2.33-.08,11.23-.25c22.9,20.72,80.34,34.46,147.2,32.83s123.52-18.13,145.35-39.93l6.69-.14v.48c.07,2.88.44,17.84.88,36.75C1733.32,2990,1734.25,3028.43,1734.69,3046.49Z"/><g class="b00ea7b4-e707-4ee8-b061-4f3714a8a097"><path class="b142c551-0fdb-4c96-9150-d03dc5e74680" d="M1734.69,3046.49c.74,31.14-68.67,58.11-155,60.18s-157-21.43-157.77-52.57c-.44-18.61-3-122.89-3-122.89l1.15,0c.73,30.11,1.62,65.27,1.84,75.36.74,31.14,71.41,54.67,157.77,52.56,80-2,145.46-25.19,154-53.38C1734.1,3022,1734.47,3037,1734.69,3046.49Z"/></g><g class="b00ea7b4-e707-4ee8-b061-4f3714a8a097"><path class="b142c551-0fdb-4c96-9150-d03dc5e74680" d="M1734.69,3046.49c.74,31.14-68.67,58.11-155,60.18s-157-21.43-157.77-52.57c-.44-18.61-3-122.89-3-122.89l1.15,0c.73,30.11,1.62,65.27,1.84,75.36.74,31.14,71.41,54.67,157.77,52.56,80-2,145.46-25.19,154-53.38C1734.1,3022,1734.47,3037,1734.69,3046.49Z"/></g><g class="b74eee70-8c69-49e9-afa0-c5e286646209"><path class="e8a8b3a6-69d0-4740-aa3e-665af2c1b757" d="M1734.69,2951.12a21.76,21.76,0,0,1-2.11,9.75c-12.11,26.85-75.72,48.57-152.92,50.42-86.36,2.11-157-21.42-157.77-52.56-.11-4.73-.37-15-.66-27.6l11.23-.25c22.9,20.72,80.34,34.46,147.2,32.83s123.52-18.13,145.35-39.93c4.32-4.28,7.28-8.79,8.68-13.44C1734.1,2926.67,1734.47,2941.66,1734.69,2951.12Z"/></g><path class="b142c551-0fdb-4c96-9150-d03dc5e74680" d="M1569.21,3121.59c-81.44,0-161-22.39-162.09-67.12l-3-122.88a14.77,14.77,0,0,1,14.41-15.13l312.79-7.61h.37a14.78,14.78,0,0,1,14.76,14.42l3,122.88c1.14,46.71-84.37,73.25-169.43,75.32C1576.42,3121.54,1572.8,3121.59,1569.21,3121.59Zm-135.18-176,2.63,108.11c.34,14.12,51.07,40.27,142.63,38.16s141-30.93,140.62-45l-2.63-108.11Z"/><path class="e8a8b3a6-69d0-4740-aa3e-665af2c1b757" d="M1731.7,2923.64v.48c0,20.35-29.92,38.86-74.88,49.72-23.34,5.65-50.79,9.27-80.15,10-86.37,2.1-157-21.46-157.77-52.6s68.63-58.07,155-60.17c12.67-.3,25-.08,36.79.66C1679.5,2876,1731,2897.08,1731.7,2923.64Z"/><path class="e3335b87-a9ab-40d2-ab16-3d9797b29528" d="M1574.84,2908.82c28.5-.69,51.8,7.08,52.05,17.35s-22.65,19.16-51.14,19.85-51.8-7.07-52-17.34S1546.35,2909.52,1574.84,2908.82Z"/><path class="b142c551-0fdb-4c96-9150-d03dc5e74680" d="M1566,2998.71c-39.34,0-76.26-5.15-105-14.72-46.32-15.43-56.5-37-56.87-52.4-1.14-46.72,84.37-73.25,169.43-75.32,43.45-1.09,84.65,4.12,116,14.58,46.33,15.44,56.5,37,56.87,52.41,1.14,46.71-84.37,73.24-169.43,75.31C1573.33,2998.67,1569.63,2998.71,1566,2998.71Zm8-127.67.36,14.77c-91.63,2.23-141,30.93-140.61,45.05.16,6.46,11.56,16.73,36.68,25.1,28.22,9.4,65.85,14,106,13.07,91.63-2.23,141-30.93,140.61-45.05-.16-6.46-11.56-16.72-36.68-25.1-28.21-9.4-65.8-14-106-13.07Z"/><g class="b00ea7b4-e707-4ee8-b061-4f3714a8a097"><path class="b142c551-0fdb-4c96-9150-d03dc5e74680" d="M1734.69,3046.49a22.37,22.37,0,0,1-2.25,10.09c-20-15.92-41.19-37.38-61-62.8q-7.76-10-14.63-19.94a359.31,359.31,0,0,1-28.11-47.73c-9.86-20.32-16-39-18-54.41,68.78,4.29,120.31,25.38,121,51.94v.48C1731.88,2931.39,1734,3016.68,1734.69,3046.49Z"/></g><path class="ffd1a665-439b-4802-83e4-c060ab223a0a" d="M1928.21,3029.11l-106.91,60.66c-27.09,15.37-83.62-33.09-126.25-108.23s-55.24-148.53-28.15-163.9L1773.81,2757Z"/><g class="b00ea7b4-e707-4ee8-b061-4f3714a8a097"><path class="b142c551-0fdb-4c96-9150-d03dc5e74680" d="M1928.21,3029.13l-106.9,60.66c-27.11,15.36-83.63-33.1-126.26-108.27-4.21-7.43-8.09-14.81-11.71-22.13,38.05,53.3,80.42,84,102.77,71.37L1893,2970.1l-120.53-212.39,1.33-.74Z"/></g><g class="b74eee70-8c69-49e9-afa0-c5e286646209"><path class="e8a8b3a6-69d0-4740-aa3e-665af2c1b757" d="M1798.07,3090.6c-29.47-9.53-70.33-51.46-103-109.08-42.62-75.13-55.26-148.49-28.14-163.9,16.18-9.16,106.9-60.65,106.9-60.65l14.48,25.52c-26.41,15-80,45.36-92,52.23-27.08,15.37-14.48,88.77,28.14,163.9C1747.17,3038.81,1774,3071.35,1798.07,3090.6Z"/></g><path class="b142c551-0fdb-4c96-9150-d03dc5e74680" d="M1809.79,3107.45c-13.57,0-31.78-6.38-55.4-26.63-25.12-21.53-50.75-54.2-72.2-92-42-74-63.22-161-22.58-184l106.91-60.66a14.8,14.8,0,0,1,20.14,5.56l154.4,272.14a14.78,14.78,0,0,1-5.56,20.14l-106.91,60.65A37.48,37.48,0,0,1,1809.79,3107.45Zm-41.55-330.33-94,53.37c-12.29,7-11.53,64,33.71,143.76,19.8,34.89,43.14,64.77,65.72,84.13,20.09,17.23,34.75,21.73,40.39,18.54l94.06-53.36Z"/><ellipse class="e8a8b3a6-69d0-4740-aa3e-665af2c1b757" cx="1851.01" cy="2893.05" rx="56.4" ry="156.44" transform="translate(-1186.58 1290.23) rotate(-29.57)"/><path class="e8a8b3a6-69d0-4740-aa3e-665af2c1b757" d="M1928.21,3029.13c-20.61,11.71-58.29-13.59-93.9-59.47a410.06,410.06,0,0,1-32.36-48.79c-42.62-75.14-55.22-148.53-28.14-163.9s83.63,33.1,126.25,108.23a409.64,409.64,0,0,1,25.27,52.78C1946.46,2972.1,1948.82,3017.42,1928.21,3029.13Z"/><ellipse class="e3335b87-a9ab-40d2-ab16-3d9797b29528" cx="1851.01" cy="2893.05" rx="18.6" ry="51.61" transform="translate(-1186.58 1290.23) rotate(-29.57)"/><g class="b00ea7b4-e707-4ee8-b061-4f3714a8a097"><path class="b142c551-0fdb-4c96-9150-d03dc5e74680" d="M1928.21,3029.13c-20.61,11.71-58.29-13.59-93.9-59.47-21.09-54.08-23.49-99.36-2.84-111.07s58.25,13.55,93.86,59.39C1946.46,2972.1,1948.82,3017.42,1928.21,3029.13Z"/></g><path class="b142c551-0fdb-4c96-9150-d03dc5e74680" d="M1916.76,3046.81c-39.71,0-91.68-55.23-127.66-118.64-42-74-63.22-161-22.58-184,13.37-7.59,37.13-10,74.2,21.81,25.11,21.52,50.75,54.19,72.19,92h0c42,74,63.23,161,22.59,184A37.47,37.47,0,0,1,1916.76,3046.81Zm-131.37-277.93a8.68,8.68,0,0,0-4.29.95c-12.29,7-11.53,64,33.71,143.76s93.83,109.67,106.11,102.68,11.52-64-33.71-143.76c-19.8-34.9-43.14-64.78-65.72-84.14C1805.3,2774.5,1792.64,2768.88,1785.39,2768.88Z"/><path class="ffd1a665-439b-4802-83e4-c060ab223a0a" d="M2148,3025.45l-98.29,73.81c-24.91,18.7-87.16-22.15-139-91.24s-73.74-140.26-48.83-159l98.29-73.81Z"/><g class="b00ea7b4-e707-4ee8-b061-4f3714a8a097"><path class="b142c551-0fdb-4c96-9150-d03dc5e74680" d="M2148,3025.44l-98.29,73.8c-24.94,18.73-87.18-22.12-139-91.2-16.47-21.94-30-44.1-39.82-64.72l1.55,2.11c51.9,69.11,114.14,110,139,91.24,20.76-15.55,75.13-56.41,92.71-69.59Z"/></g><g class="b74eee70-8c69-49e9-afa0-c5e286646209"><path class="e8a8b3a6-69d0-4740-aa3e-665af2c1b757" d="M2021.77,3101.86c-30.32-8.42-73.43-43.69-111.07-93.82-51.9-69.11-73.77-140.29-48.83-159,14.88-11.2,98.29-73.81,98.29-73.81l17.7,23.57c-23.76,17.8-74.69,56.07-86,64.57-24.9,18.73-3,89.87,48.86,159C1967.14,3057.58,1996.29,3085.46,2021.77,3101.86Z"/></g><path class="b142c551-0fdb-4c96-9150-d03dc5e74680" d="M2034.65,3118.63c-12.92,0-30-5-52.44-19.71-27.65-18.15-57.24-47.28-83.34-82-51.08-68.05-83.25-151.6-45.88-179.66l98.29-73.8a14.78,14.78,0,0,1,20.69,2.94l187.87,250.2a14.78,14.78,0,0,1-3,20.69l-98.29,73.8C2053,3115.24,2045.26,3118.63,2034.65,3118.63Zm-77.45-322.69-86.47,64.93c-11.29,8.49-3.26,65,51.78,138.28,24.09,32.09,51,58.74,75.92,75.06,22.12,14.53,37.26,17.1,42.42,13.23l86.48-64.93Z"/><ellipse class="e8a8b3a6-69d0-4740-aa3e-665af2c1b757" cx="2054.09" cy="2900.35" rx="56.4" ry="156.44" transform="translate(-1330 1814.4) rotate(-36.9)"/><path class="e8a8b3a6-69d0-4740-aa3e-665af2c1b757" d="M2148,3025.44c-21.76,16.33-71.92-12.67-118.83-66.27-6.83-7.83-13.59-16.18-20.21-25-51.89-69.07-73.76-140.26-48.83-158.95s87.14,22.17,139,91.24c20.42,27.23,36.2,54.74,46.28,79.27C2161,2983.51,2163.1,3014.1,2148,3025.44Z"/><ellipse class="e3335b87-a9ab-40d2-ab16-3d9797b29528" cx="2054.09" cy="2900.35" rx="18.6" ry="51.61" transform="translate(-1330 1814.4) rotate(-36.9)"/><g class="b00ea7b4-e707-4ee8-b061-4f3714a8a097"><path class="b142c551-0fdb-4c96-9150-d03dc5e74680" d="M2148,3025.44c-21.76,16.33-71.92-12.67-118.83-66.27-15.51-37.71-17.58-68.3-2.51-79.6,21.72-16.33,71.88,12.67,118.79,66.19C2161,2983.51,2163.1,3014.1,2148,3025.44Z"/></g><path class="b142c551-0fdb-4c96-9150-d03dc5e74680" d="M2133.05,3044.83c-39.17,0-94.22-46.27-135.88-101.74-26.09-34.74-45.81-71.29-55.52-102.91-14.34-46.68-2.68-67.5,9.63-76.74,37.39-28.06,108.64,26.15,159.72,94.18h0c51.09,68,83.26,151.59,45.89,179.65A38.7,38.7,0,0,1,2133.05,3044.83Zm-157.76-259.41a10.34,10.34,0,0,0-6.27,1.65c-5.17,3.88-6.9,19.12.87,44.43,8.74,28.43,26.82,61.76,50.91,93.85,55,73.31,107.06,96.78,118.35,88.29s3.26-65-51.78-138.28h0C2039.39,2811.46,1993.7,2785.42,1975.29,2785.42Z"/><path class="ffd1a665-439b-4802-83e4-c060ab223a0a" d="M2375.6,2984.88l-75.68,96.86c-19.18,24.54-89.91,1.32-158-51.88s-107.73-116.21-88.55-140.76l75.68-96.85Z"/><g class="b00ea7b4-e707-4ee8-b061-4f3714a8a097"><path class="b142c551-0fdb-4c96-9150-d03dc5e74680" d="M2375.61,2984.88l-75.69,96.85c-19.17,24.57-89.91,1.33-158-51.86a403.23,403.23,0,0,1-48.32-44.21c64.16,46.65,127.84,65.86,145.87,42.77,16.55-21.17,60.84-77.87,72.7-93.08Z"/></g><g class="b74eee70-8c69-49e9-afa0-c5e286646209"><path class="e8a8b3a6-69d0-4740-aa3e-665af2c1b757" d="M2277,3091.45c-31.14,1.48-83.82-21.57-135-61.58-68.12-53.19-107.75-116.21-88.58-140.77,11.49-14.67,75.68-96.85,75.68-96.85l18.66,14.59c-17.92,23-58.11,74.43-67,85.73-19.17,24.56,20.5,87.58,88.58,140.77C2207.54,3063.23,2246.66,3083.65,2277,3091.45Z"/></g><path class="b142c551-0fdb-4c96-9150-d03dc5e74680" d="M2274.21,3106.33c-38.53,0-93.93-27.75-141.39-64.82-34.23-26.75-62.79-56.91-80.41-84.9-26-41.34-20.16-64.47-10.68-76.6l75.67-96.86a14.76,14.76,0,0,1,20.74-2.54l246.55,192.62a14.78,14.78,0,0,1,2.55,20.75l-75.68,96.86C2303.16,3101.6,2290.12,3106.33,2274.21,3106.33ZM2131.59,2813,2065,2898.2c-4,5.1-1.68,20.26,12.42,42.67,15.84,25.18,42,52.65,73.59,77.35,72.23,56.43,128.56,65.55,137.26,54.42l66.58-85.22Z"/><path class="e8a8b3a6-69d0-4740-aa3e-665af2c1b757" d="M2375.61,2984.88c-16.51,21.13-71.26,6.87-129.62-31.43-9.42-6.21-18.95-13-28.4-20.43-68.08-53.19-107.72-116.25-88.55-140.77s89.91-1.33,158,51.86c39.93,31.21,70.11,65.78,84.33,94C2381.41,2958,2383.55,2974.72,2375.61,2984.88Z"/><path class="e8a8b3a6-69d0-4740-aa3e-665af2c1b757" d="M2375.61,2984.88c-15.29,19.54-63.31,8.79-116.65-23.27q-6.43-3.89-13-8.16c-9.42-6.21-18.95-13-28.4-20.43-68.08-53.19-107.72-116.25-88.55-140.77s89.91-1.33,158,51.86c24.64,19.24,45.55,39.78,61.32,59.32,9.79,12.12,17.58,23.86,23,34.69C2381.41,2958,2383.55,2974.72,2375.61,2984.88Z"/><ellipse class="e3335b87-a9ab-40d2-ab16-3d9797b29528" cx="2252.32" cy="2888.56" rx="18.6" ry="51.61" transform="translate(-1410.56 2884.99) rotate(-52)"/><g class="b00ea7b4-e707-4ee8-b061-4f3714a8a097"><path class="b142c551-0fdb-4c96-9150-d03dc5e74680" d="M2375.61,2984.88c-15.29,19.54-63.31,8.79-116.65-23.27-27.85-34.5-39.64-65.94-27.37-81.6,15.29-19.58,63.38-8.75,116.76,23.42,9.79,12.12,17.58,23.86,23,34.69C2381.41,2958,2383.55,2974.72,2375.61,2984.88Z"/></g><path class="b142c551-0fdb-4c96-9150-d03dc5e74680" d="M2349.89,3009.47c-38.54,0-93.94-27.75-141.39-64.83-34.24-26.74-62.79-56.9-80.41-84.89-26-41.34-20.16-64.47-10.69-76.6s30.51-23.39,76.91-8.15c31.43,10.31,67.59,30.73,101.83,57.48,67.05,52.38,119.87,124.67,91.1,161.5C2378.84,3004.74,2365.8,3009.47,2349.89,3009.47ZM2154.71,2797.2c-7.32,0-12.05,1.62-14,4.14-4,5.1-1.68,20.26,12.42,42.67,15.84,25.18,42,52.65,73.59,77.35,72.23,56.43,128.55,65.55,137.26,54.42s-13.78-63.58-86-120h0c-31.62-24.7-64.59-43.41-92.85-52.69C2172.38,2798.9,2162.19,2797.2,2154.71,2797.2Z"/><path class="ffd1a665-439b-4802-83e4-c060ab223a0a" d="M2581.39,3009.16l-89.71,84c-22.74,21.3-89-12.56-148.11-75.62s-88.51-131.44-65.78-152.73c13.59-12.74,89.71-84,89.71-84Z"/><g class="b00ea7b4-e707-4ee8-b061-4f3714a8a097"><path class="b142c551-0fdb-4c96-9150-d03dc5e74680" d="M2581.39,3009.15s-67,62.76-89.72,84-89-12.56-148.09-75.61c-19.54-20.87-35.86-42.37-48.09-62.5.89,1,1.85,2,2.77,3,59.07,63.05,125.37,96.93,148.12,75.61,18.73-17.54,67.64-63.35,84.15-78.86Z"/></g><g class="b74eee70-8c69-49e9-afa0-c5e286646209"><path class="e8a8b3a6-69d0-4740-aa3e-665af2c1b757" d="M2461.68,3098.28c-31-6.2-76.36-36.16-118.1-80.71-59.06-63.05-88.54-131.46-65.78-152.74l89.68-84,20.1,21.47-79,74c-22.72,21.28,6.72,89.65,65.79,152.74C2403.76,3060.42,2434.93,3084.58,2461.68,3098.28Z"/></g><path class="b142c551-0fdb-4c96-9150-d03dc5e74680" d="M2473,3114.38c-38.89,0-95.15-38.56-140.25-86.72-58.16-62.1-99.2-141.68-65.1-173.62l89.71-84a14.79,14.79,0,0,1,20.89.68l213.88,228.36a14.79,14.79,0,0,1-.68,20.89l-89.71,84C2494.12,3111.14,2484.31,3114.38,2473,3114.38Zm-106.22-312.7-78.93,73.93c-10.31,9.65,3.81,64.95,66.47,131.85s116.93,84.61,127.21,74.94l78.94-73.93Z"/><ellipse class="e8a8b3a6-69d0-4740-aa3e-665af2c1b757" cx="2474.44" cy="2894.98" rx="56.4" ry="156.44" transform="translate(-1310.55 2473.6) rotate(-43.13)"/><g class="b00ea7b4-e707-4ee8-b061-4f3714a8a097"><path class="b142c551-0fdb-4c96-9150-d03dc5e74680" d="M2581.39,3009.15c-22.75,21.31-89-12.56-148.12-75.61-31.43-33.54-54.48-68.6-65.71-97.26q9.53,11.85,20.54,23.6c59.06,63,125.36,96.93,148.08,75.65,10.68-10,9.86-30.33-.11-55.63C2581.14,2935.64,2601.3,2990.49,2581.39,3009.15Z"/></g><ellipse class="e3335b87-a9ab-40d2-ab16-3d9797b29528" cx="2474.44" cy="2894.98" rx="18.6" ry="51.61" transform="translate(-1310.55 2473.6) rotate(-43.13)"/><path class="b142c551-0fdb-4c96-9150-d03dc5e74680" d="M2562.64,3030.36c-12.17,0-28-3.79-48.4-14.22-29.46-15-62-40.79-91.74-72.51s-53.27-65.9-66.35-96.28c-19.32-44.85-10-66.82,1.25-77.34,34.12-31.92,110.83,14.21,169,76.31h0c29.71,31.72,53.27,65.91,66.35,96.29,19.32,44.85,10,66.81-1.25,77.33C2585.53,3025.52,2576.39,3030.36,2562.64,3030.36Zm-176.47-241.22c-4,0-6.86.84-8.57,2.44-4.71,4.42-4.79,19.76,5.69,44.08,11.77,27.32,33.35,58.49,60.78,87.77s57.12,52.86,83.61,66.39c23.58,12,38.9,13,43.61,8.55s4.79-19.76-5.69-44.07c-11.76-27.32-33.35-58.49-60.78-87.77h0C2452.54,2810.7,2406.11,2789.14,2386.17,2789.14Z"/><path class="e8a8b3a6-69d0-4740-aa3e-665af2c1b757" d="M2603.88,1495.8c6.34,19.3-11.18,38-30.9,33.11-289.94-71.32-429.68-66.28-565.87-66.28-137.31,0-282.95-5.13-579,68.09-19.67,4.86-37.2-13.71-31-33a631.43,631.43,0,0,1,113.23-206.82,177.74,177.74,0,0,1,82.29-55.81c110.24-36,248.68-64.2,411.42-64.2,157.62,0,292.43,26.5,400.92,60.81a177.82,177.82,0,0,1,83,55.37A635.31,635.31,0,0,1,2603.88,1495.8Z"/><path class="b142c551-0fdb-4c96-9150-d03dc5e74680" d="M1421.84,1546.26a40.87,40.87,0,0,1-29.86-13,40,40,0,0,1-8.93-40.09,643.81,643.81,0,0,1,115.88-211.66,192.09,192.09,0,0,1,89.12-60.47c132.08-43.08,272-64.93,416-64.93,140,0,276.33,20.69,405.38,61.5a192.16,192.16,0,0,1,89.87,60,647.19,647.19,0,0,1,118.62,213.57h0a40,40,0,0,1-8.8,40.17,40.79,40.79,0,0,1-39.67,11.89c-270.34-66.49-405.87-66.17-537.08-65.89-16.91,0-33.58,0-50.55,0-128.39-.32-274-.63-550.2,67.69A40.78,40.78,0,0,1,1421.84,1546.26Zm582.21-360.59c-140.83,0-277.71,21.36-406.84,63.48a162.53,162.53,0,0,0-75.45,51.14,614.47,614.47,0,0,0-110.6,202,10.78,10.78,0,0,0,2.44,10.84,11,11,0,0,0,10.92,3.26c279.8-69.19,427.3-68.84,557.37-68.56,16.93,0,33.56,0,50.41,0,126.77-.3,270.36-.61,544.21,66.75a11,11,0,0,0,10.93-3.29,10.74,10.74,0,0,0,2.4-10.86h0a617.8,617.8,0,0,0-113.22-203.87,162.59,162.59,0,0,0-76.1-50.75C2274.36,1205.9,2141,1185.67,2004.05,1185.67Z"/><circle class="e3335b87-a9ab-40d2-ab16-3d9797b29528" cx="2012.13" cy="1315.13" r="94.52" transform="translate(-340.6 1807.98) rotate(-45)"/><path class="b142c551-0fdb-4c96-9150-d03dc5e74680" d="M2257.31,1399.29c29.45-.65,58.78.85,88,3.15s58.4,6,87.5,10.34,58.1,9.81,87,17.14c14.39,3.81,28.82,7.84,43.06,13.32a225.6,225.6,0,0,1,21.32,9.31,99.27,99.27,0,0,1,21,13.77,12.48,12.48,0,0,1-15.66,19.42l-.84-.64c-9-6.91-21.91-12.87-34.89-17.62-13.14-4.73-26.75-9-40.57-12.82-27.61-7.73-55.89-14.13-84.28-20.16s-57-11.38-85.63-17.15S2286,1405.94,2257.31,1399.29Z"/><path class="b142c551-0fdb-4c96-9150-d03dc5e74680" d="M1745.36,1399.29c-28.68,6.65-57.35,12.33-86,18.06s-57.22,11.08-85.62,17.15-56.67,12.43-84.29,20.16c-13.81,3.78-27.42,8.09-40.57,12.82-13,4.75-25.88,10.71-34.88,17.62l-.82.63a12.48,12.48,0,0,1-15.68-19.41,99.27,99.27,0,0,1,21-13.77,223.37,223.37,0,0,1,21.32-9.31c14.24-5.48,28.66-9.51,43-13.32,28.86-7.33,57.87-12.68,87-17.14s58.23-8,87.5-10.34S1715.91,1398.64,1745.36,1399.29Z"/><g class="b00ea7b4-e707-4ee8-b061-4f3714a8a097"><path class="b142c551-0fdb-4c96-9150-d03dc5e74680" d="M2573,1528.91c-289.94-71.32-429.7-66.29-565.89-66.29-137.31,0-282.94-5.13-579,68.09-19.68,4.86-37.21-13.69-31-33a628.89,628.89,0,0,1,53.76-121c-18.32,95.72,17.84,56.79,266.51,32.93,556.46-53.39,677.58,35.11,756.73,13.52,75.43-20.57,5.2-106.12-32.72-175.3a175.22,175.22,0,0,1,46.58,39.22,635.21,635.21,0,0,1,115.91,208.73C2610.23,1515.08,2592.7,1533.77,2573,1528.91Z"/></g><g class="f499b1fa-513d-4522-b5fb-f5250ad13895"><ellipse class="e8a8b3a6-69d0-4740-aa3e-665af2c1b757" cx="2418.5" cy="1733.51" rx="109.81" ry="79.57" transform="translate(175.11 3688.35) rotate(-76.7)"/></g><g class="f499b1fa-513d-4522-b5fb-f5250ad13895"><ellipse class="e8a8b3a6-69d0-4740-aa3e-665af2c1b757" cx="2309.66" cy="1945.59" rx="50.4" ry="43.25" transform="translate(-340.56 3393.4) rotate(-68.76)"/></g></g><g id="b3b73461-1699-4670-8849-de451d29626f" data-name="letters"><g class="bead9780-c47c-4a86-8f80-5419d91cbc8a"><path class="ab11f4d1-44d0-48df-b989-2405068487be" d="M1716.71,1658.48h-43.6c-1.37-13.77-2-25.52-3.82-37.08-2.83-18.14-13.1-30.61-31.57-30.16-19,.46-26,13.55-28,32.4-5.71,54.6,5,101.4,48.89,138.58,43.29,36.66,68.5,83.07,60.1,143.65-2.21,15.91-.32,32.37-1,48.55-1.85,41.87-26.23,68.36-65.76,72.06-45.39,4.24-79.35-17.5-87.88-58.2-3.69-17.63-3.82-36.06-5.3-54.15-1.57-19.3,7.28-27.4,26.28-27.38,20,0,25.93,10.65,25.23,28.78-.39,10.1-.32,20.26.17,30.37.85,17.91,11.33,28.88,27.76,29.95,16.77,1.09,27.45-8.84,29.85-27,7.41-56,6.52-108.73-41.33-149.61-28.09-24-53.51-51.19-63-89.73-10.12-41.32-7.83-82.73,1.92-123.13,6.42-26.63,28-41.59,54.15-45.69,33.46-5.25,62.77,3.44,84.14,32.63C1722.3,1598.43,1718.67,1626.28,1716.71,1658.48Z"/><path class="ab11f4d1-44d0-48df-b989-2405068487be" d="M2426.85,1779.81c0,48.62.15,97.24-.14,145.86-.06,10-.32,20.44-3,29.93-11.22,39.51-49.41,67.89-83.92,63.44-38.65-5-71.78-44.19-72.08-88.12-.62-90.15-.08-180.3,0-270.45,0-11.15-.47-22.3-.07-33.43,1.74-48,39.83-88.25,82-87.06,41.74,1.17,76.62,40.35,77.13,87.89C2427.27,1678.51,2426.84,1729.16,2426.85,1779.81Zm-34.7.69H2392c0-45.57.37-91.16-.13-136.73-.32-29.6-13.44-47.09-36.61-51.22-30.15-5.37-51.86,16.26-52,53.59q-.48,133.68.26,267.38c.15,32.65,18.07,53.89,43.61,54,23.61.15,47.67-25.72,45.73-56.46C2390.1,1867.74,2392.15,1824.05,2392.15,1780.5Z"/><path class="ab11f4d1-44d0-48df-b989-2405068487be" d="M1876.87,1754.66v36.55L1833,1801.43v116.19l53.81,6.64c13.29,26,7.85,39.52-18.36,39.68-89.24.54-77.6,9-77.79-72.22q-.33-136.62,0-273.24c.06-29.25,4-33.35,32.38-34.11,16.83-.45,33.69.12,50.54.38,13.22.21,20.33,7.85,21,20.68.69,14.17-6,23.07-20.71,24q-8.9.58-17.83.53c-15.87-.09-24.12,8.46-24.5,24-.63,26.3-.48,52.62-.45,78.93,0,13.75,7.35,20,20.55,20.16C1858.42,1753.21,1865.27,1753.93,1876.87,1754.66Z"/><path class="ab11f4d1-44d0-48df-b989-2405068487be" d="M2112.45,1631.2c-14.12-.91-26.12,1.19-35.18-3.12-8-3.83-16.49-14.22-17.78-22.8-.87-5.85,10.08-19.31,16.11-19.54,44.19-1.7,88.47-.92,131.36-.92,9.34,36.7,9.34,36.7-47.18,49.24-.48,10.06-1.42,20.9-1.43,31.74q-.1,124.52.08,249c0,35-6.44,48.57-22.84,48.19-16-.37-20.58-11-20.43-46.6.32-81,.72-162,.66-242.94C2115.81,1659.77,2113.69,1646.07,2112.45,1631.2Z"/><path class="ab11f4d1-44d0-48df-b989-2405068487be" d="M2002.09,1962.06h-35.91c-1.26-7.9-3-13.64-3-19.38-.24-108.45-.56-216.91-.19-325.36.1-29.82,7.6-33.66,39.06-21.58Z"/></g></g><g id="eba4a9db-f566-4a2d-913d-8225884bc52e" data-name="Layer 3" class="ecdc58e3-b616-4e67-b3b4-5c0cc3e8b52e"><path class="e8a8b3a6-69d0-4740-aa3e-665af2c1b757" d="M1662.81,1571.34a1.5,1.5,0,0,0,0-3,1.5,1.5,0,0,0,0,3Z"/></g></g></svg>