<svg xmlns="http://www.w3.org/2000/svg" xmlns:xlink="http://www.w3.org/1999/xlink" width="100%" height="100%" viewBox="0 0 60.63 59.48"><defs><style>.a40b5735-7e74-4869-b65f-cba07a7bca04{isolation:isolate;}.a6a1fd75-106f-4103-ad80-8514292d70c9{fill:url(#fd0ce28f-f925-442f-ad3a-18899b1128bd);}.f4b8f454-7327-4914-b4ec-4346156ed4a2{mix-blend-mode:color-burn;fill:url(#b80f5afb-bb94-4564-afac-75e8ea1785e6);}.b80a138b-43b0-4190-85b0-8ab6eeff51d3{fill:#fff;}.ed74648f-7ff3-4c0b-894a-97968c5c475c{fill:#f36;}</style><linearGradient id="fd0ce28f-f925-442f-ad3a-18899b1128bd" x1="10.3" y1="49.9" x2="50.08" y2="10.12" gradientUnits="userSpaceOnUse"><stop offset="0" stop-color="#f05"/><stop offset="1" stop-color="#ff5990"/></linearGradient><radialGradient id="b80f5afb-bb94-4564-afac-75e8ea1785e6" cx="27.72" cy="32.49" r="23.8" gradientUnits="userSpaceOnUse"><stop offset="0.53"/><stop offset="0.59" stop-color="#383838"/><stop offset="0.65" stop-color="#6c6c6c"/><stop offset="0.71" stop-color="#999"/><stop offset="0.76" stop-color="#bebebe"/><stop offset="0.82" stop-color="#dadada"/><stop offset="0.88" stop-color="#efefef"/><stop offset="0.94" stop-color="#fbfbfb"/><stop offset="1" stop-color="#fff"/></radialGradient></defs><g class="a40b5735-7e74-4869-b65f-cba07a7bca04"><g id="e2558255-44df-44c8-b08a-b3b31ae49e27" data-name="Layer 1"><path class="a6a1fd75-106f-4103-ad80-8514292d70c9" d="M59.09,29.56A28.44,28.44,0,1,0,23,57s5.71,1,7.63,1,7.64-1,7.64-1A28.45,28.45,0,0,0,59.09,29.56Z"/><circle class="f4b8f454-7327-4914-b4ec-4346156ed4a2" cx="27.72" cy="32.49" r="23.8"/><circle class="b80a138b-43b0-4190-85b0-8ab6eeff51d3" cx="30.65" cy="29.56" r="20.74"/><path class="ed74648f-7ff3-4c0b-894a-97968c5c475c" d="M23,22.46V17.65H37.28v3.91l-4.76,5.89A6.69,6.69,0,0,1,36.85,30a7.65,7.65,0,0,1,1.53,4.72A8,8,0,0,1,35.9,41a9.06,9.06,0,0,1-6.35,2.26,13.11,13.11,0,0,1-7.82-3l2.13-4.49q3.3,2.54,5.89,2.53a3.88,3.88,0,0,0,2.58-.83,2.91,2.91,0,0,0,1-2.4,3,3,0,0,0-1.17-2.5A5.09,5.09,0,0,0,29,31.64a10.29,10.29,0,0,0-3.09.69V28.17l4.46-5.71Z"/></g></g></svg>