<svg xmlns="http://www.w3.org/2000/svg" xmlns:xlink="http://www.w3.org/1999/xlink" width="100%" height="100%" viewBox="0 0 60.63 59.48"><defs><style>.f5f07299-9a3b-43a7-a080-ed4625dd422c{isolation:isolate;}.a583c8d7-9c0b-485a-a0d2-928cf6dd0d30{fill:url(#b6864766-2660-4d7a-ab2b-83d7be325c8b);}.e3b7d68d-1c74-4356-adae-7770ee7d2838{mix-blend-mode:color-burn;fill:url(#b5950100-0e99-43cb-8231-6cf95c9b31f0);}.b14eb542-aba6-4d35-a022-a37cebfb09d2{fill:#fff;}.f59b1c77-6482-48e5-a1e3-a94538ae85e1{fill:#f36;}</style><linearGradient id="b6864766-2660-4d7a-ab2b-83d7be325c8b" x1="8.93" y1="49.9" x2="48.71" y2="10.12" gradientUnits="userSpaceOnUse"><stop offset="0" stop-color="#f05"/><stop offset="1" stop-color="#ff5990"/></linearGradient><radialGradient id="b5950100-0e99-43cb-8231-6cf95c9b31f0" cx="26.35" cy="32.49" r="23.8" gradientUnits="userSpaceOnUse"><stop offset="0.53"/><stop offset="0.59" stop-color="#383838"/><stop offset="0.65" stop-color="#6c6c6c"/><stop offset="0.71" stop-color="#999"/><stop offset="0.76" stop-color="#bebebe"/><stop offset="0.82" stop-color="#dadada"/><stop offset="0.88" stop-color="#efefef"/><stop offset="0.94" stop-color="#fbfbfb"/><stop offset="1" stop-color="#fff"/></radialGradient></defs><g class="f5f07299-9a3b-43a7-a080-ed4625dd422c"><g id="be5cc606-f6e9-4a75-a71e-9d7dd87fca72" data-name="Layer 1"><path class="a583c8d7-9c0b-485a-a0d2-928cf6dd0d30" d="M57.72,29.56A28.44,28.44,0,1,0,21.65,57s5.71,1,7.63,1,7.64-1,7.64-1A28.45,28.45,0,0,0,57.72,29.56Z"/><circle class="e3b7d68d-1c74-4356-adae-7770ee7d2838" cx="26.35" cy="32.49" r="23.8"/><circle class="b14eb542-aba6-4d35-a022-a37cebfb09d2" cx="29.28" cy="29.56" r="20.74"/><path class="f59b1c77-6482-48e5-a1e3-a94538ae85e1" d="M31.5,27a4.51,4.51,0,0,0,1-2.62,2.89,2.89,0,0,0-3-3c-1.6,0-3.13,1.13-4.56,3.4l-4.57-2.68A14.16,14.16,0,0,1,24.27,18a9.68,9.68,0,0,1,5.44-1.41,8.82,8.82,0,0,1,5.81,2.09A7,7,0,0,1,38,24.3a7.53,7.53,0,0,1-1,3.75,24.51,24.51,0,0,1-3.71,4.58l-4.6,4.75H38.79v5.07h-18v-4.2l7.49-7.61A31.34,31.34,0,0,0,31.5,27Z"/></g></g></svg>